<?xml version="1.0" standalone="no"?>
<!DOCTYPE svg PUBLIC "-//W3C//DTD SVG 20010904//EN"
 "http://www.w3.org/TR/2001/REC-SVG-20010904/DTD/svg10.dtd">
<svg version="1.0" xmlns="http://www.w3.org/2000/svg"
 width="618.000000pt" height="301.000000pt" viewBox="0 0 618.000000 301.000000"
 preserveAspectRatio="xMidYMid meet">

<g transform="translate(0.000000,301.000000) scale(0.100000,-0.100000)"
fill="#000000" stroke="none">
<path d="M910 1892 c0 -384 5 -426 61 -514 148 -230 467 -260 648 -62 60 66
89 125 104 209 27 158 -47 328 -180 413 -135 85 -317 80 -440 -14 l-33 -25 0
170 0 171 -80 0 -80 0 0 -348z m479 -58 c65 -19 136 -81 164 -144 26 -59 26
-141 0 -200 -22 -50 -88 -115 -139 -136 -43 -18 -145 -18 -188 0 -49 20 -116
85 -137 131 -25 54 -25 157 0 210 27 58 91 115 153 136 66 23 81 23 147 3z"/>
<path d="M1810 2160 l0 -80 75 0 75 0 0 80 0 80 -75 0 -75 0 0 -80z"/>
<path d="M2940 1923 c0 -175 5 -349 10 -388 34 -235 253 -389 485 -342 129 27
228 104 287 225 31 63 33 72 33 177 0 100 -3 115 -28 167 -42 85 -116 161
-195 200 -61 30 -74 33 -162 33 -104 0 -150 -13 -226 -66 l-44 -30 0 171 0
170 -80 0 -80 0 0 -317z m533 -111 c152 -82 180 -273 60 -398 -50 -50 -105
-74 -178 -74 -143 0 -254 110 -255 250 0 86 39 156 123 220 30 23 109 40 157
34 25 -3 67 -18 93 -32z"/>
<path d="M2359 1986 c-108 -29 -207 -114 -261 -224 -31 -62 -33 -73 -33 -172
0 -97 2 -110 32 -172 110 -232 385 -304 596 -156 34 24 36 11 6 -66 -67 -180
-310 -221 -424 -71 l-27 34 -64 -42 c-35 -23 -64 -45 -64 -49 0 -23 116 -122
177 -151 63 -29 76 -32 168 -32 92 0 106 3 168 32 115 54 197 154 228 275 15
63 23 402 11 469 -37 195 -211 340 -406 338 -34 0 -82 -6 -107 -13z m216 -165
c46 -20 110 -88 131 -137 8 -18 14 -59 14 -91 -1 -143 -110 -253 -253 -253
-71 0 -120 20 -170 68 -59 56 -81 106 -81 182 0 120 80 221 197 251 42 10 112
2 162 -20z"/>
<path d="M4117 1989 c-107 -25 -221 -119 -273 -224 -27 -55 -29 -69 -29 -170
0 -103 2 -114 32 -178 121 -255 458 -313 659 -113 185 186 149 492 -74 635
-83 53 -214 74 -315 50z m199 -164 c49 -20 105 -76 130 -130 78 -167 -44 -355
-232 -355 -172 0 -294 168 -239 331 48 139 205 211 341 154z"/>
<path d="M1810 1595 l0 -395 75 0 75 0 0 395 0 395 -75 0 -75 0 0 -395z"/>
<path d="M4583 1978 c2 -7 59 -97 126 -200 l121 -188 -125 -190 c-69 -105
-125 -193 -125 -196 0 -2 40 -4 89 -4 l88 0 79 120 c44 66 82 120 85 120 3 0
42 -54 85 -120 l79 -120 92 0 92 0 -124 190 c-69 105 -125 195 -125 201 0 5
53 92 118 192 65 100 122 188 126 195 5 9 -14 12 -84 12 l-91 0 -81 -125 c-44
-69 -83 -125 -87 -124 -3 0 -42 56 -86 124 l-80 125 -89 0 c-66 0 -87 -3 -83
-12z"/>
<path d="M3654 1067 c-2 -7 -3 -62 -2 -123 3 -94 5 -109 21 -112 15 -3 17 8
17 122 0 107 -2 126 -15 126 -9 0 -18 -6 -21 -13z"/>
<path d="M4120 1032 l0 -48 -40 4 c-46 5 -74 -13 -84 -53 -7 -29 9 -74 32 -91
22 -17 64 -18 80 -2 9 9 12 9 12 0 0 -7 9 -12 20 -12 19 0 20 7 20 125 0 118
-1 125 -20 125 -17 0 -20 -7 -20 -48z m-10 -97 c15 -18 10 -45 -12 -59 -33
-20 -69 20 -54 60 7 18 50 18 66 -1z"/>
<path d="M4190 1065 c-15 -18 -5 -35 20 -35 10 0 22 5 25 10 7 11 -12 40 -25
40 -4 0 -13 -7 -20 -15z"/>
<path d="M4310 1067 c-16 -8 -26 -23 -28 -40 -2 -16 -10 -31 -18 -34 -18 -7
-18 -29 1 -37 11 -4 15 -21 15 -66 0 -53 2 -61 18 -58 14 3 18 16 20 66 2 46
7 62 17 62 8 0 15 7 15 15 0 8 -7 15 -15 15 -23 0 -19 41 5 47 22 6 28 43 8
43 -7 0 -24 -6 -38 -13z"/>
<path d="M3802 1050 c-15 -25 -15 -30 1 -30 8 0 24 11 37 25 l23 25 -24 0
c-13 0 -30 -9 -37 -20z"/>
<path d="M5000 1020 c0 -20 -5 -30 -15 -30 -8 0 -15 -7 -15 -15 0 -8 7 -15 15
-15 10 0 15 -16 17 -62 2 -50 6 -63 21 -66 15 -3 17 5 17 58 0 53 3 63 20 67
11 3 20 11 20 18 0 7 -9 15 -20 18 -14 3 -20 14 -20 31 0 19 -5 26 -20 26 -16
0 -20 -7 -20 -30z"/>
<path d="M2960 909 c0 -71 2 -80 18 -77 13 2 18 16 22 56 6 52 21 75 45 66 7
-3 15 4 18 15 4 18 0 21 -23 21 -16 0 -31 -6 -33 -12 -4 -10 -6 -10 -6 0 -1 6
-10 12 -21 12 -18 0 -20 -7 -20 -81z"/>
<path d="M3091 964 c-24 -30 -26 -55 -9 -87 26 -50 87 -63 129 -27 27 21 24
23 -40 24 -26 1 -46 6 -48 14 -3 9 11 12 51 12 53 0 56 1 56 25 0 64 -98 91
-139 39z m89 -19 c11 -13 7 -15 -24 -15 -34 0 -44 8 -29 23 11 12 40 8 53 -8z"/>
<path d="M3270 968 c-58 -63 16 -168 91 -128 26 14 25 -4 -1 -30 -24 -24 -29
-24 -56 -6 -13 9 -26 11 -34 6 -12 -7 -11 -12 4 -29 26 -29 96 -29 122 0 15
17 20 40 22 114 l4 92 -66 1 c-55 1 -69 -2 -86 -20z m101 -39 c9 -18 7 -25 -9
-41 -23 -24 -58 -17 -67 13 -14 44 53 69 76 28z"/>
<path d="M3470 970 c-13 -13 -20 -34 -20 -59 0 -57 33 -81 108 -78 l57 3 3 76
3 76 -66 1 c-52 0 -70 -4 -85 -19z m95 -54 c0 -36 -27 -56 -52 -40 -40 25 -20
77 26 72 21 -2 26 -8 26 -32z"/>
<path d="M3741 964 c-31 -40 -24 -89 18 -121 21 -16 64 -16 79 -1 9 9 12 9 12
0 0 -7 9 -12 20 -12 18 0 20 7 20 79 l0 79 -64 1 c-59 1 -67 -2 -85 -25z m97
-26 c20 -20 14 -48 -14 -60 -23 -11 -29 -10 -45 11 -14 17 -16 27 -9 42 12 21
50 25 68 7z"/>
<path d="M4190 910 c0 -73 2 -80 20 -80 18 0 20 7 20 80 0 73 -2 80 -20 80
-18 0 -20 -7 -20 -80z"/>
<path d="M4371 964 c-25 -31 -26 -55 -6 -93 21 -41 72 -54 116 -31 37 20 23
40 -27 37 -30 -1 -48 2 -51 11 -3 9 11 12 51 12 53 0 56 1 56 25 0 64 -98 91
-139 39z m89 -19 c11 -13 7 -15 -24 -15 -34 0 -44 8 -29 23 11 12 40 8 53 -8z"/>
<path d="M4530 910 c0 -73 2 -80 20 -80 17 0 20 7 20 43 0 52 22 87 50 80 15
-4 20 0 20 16 0 15 -6 21 -23 21 -13 0 -28 -5 -35 -12 -9 -9 -12 -9 -12 0 0 7
-9 12 -20 12 -18 0 -20 -7 -20 -80z"/>
<path d="M4660 970 c-12 -12 -20 -33 -20 -55 0 -71 78 -110 131 -65 26 21 24
23 -40 24 -26 1 -46 6 -48 14 -3 9 12 12 56 12 53 0 61 2 61 19 0 10 -9 30
-21 45 -26 33 -88 37 -119 6z m90 -25 c11 -13 7 -15 -30 -15 -37 0 -41 2 -30
15 7 8 20 15 30 15 10 0 23 -7 30 -15z"/>
<path d="M4820 909 c0 -72 2 -79 20 -79 16 0 19 8 22 58 3 53 5 57 28 57 23 0
25 -4 28 -57 3 -50 6 -58 22 -58 18 0 20 7 20 69 0 44 -5 72 -13 79 -7 6 -39
11 -70 11 l-57 -1 0 -79z"/>
<path d="M5100 968 c-43 -47 -8 -138 54 -138 28 0 76 19 76 30 0 15 -28 31
-35 20 -9 -15 -51 -12 -65 5 -11 13 -5 15 49 15 57 0 61 1 61 23 0 38 -35 67
-80 67 -27 0 -45 -7 -60 -22z m90 -23 c11 -13 7 -15 -30 -15 -37 0 -41 2 -30
15 7 8 20 15 30 15 10 0 23 -7 30 -15z"/>
</g>
</svg>
