<svg xmlns="http://www.w3.org/2000/svg" width="811" height="236" fill="none"><path fill="#260700" d="M109.143 77.82c20.971 0 37.041 14.923 39.688 34.362h-23.465c-2.216-6.896-8.445-11.553-16.223-11.553-9.88 0-17.206 7.344-17.206 17.247s7.326 17.246 17.206 17.246c7.821 0 14.075-4.708 16.258-11.667h23.442c-2.609 19.398-18.697 34.365-39.7 34.365-23.09 0-40.073-17.914-40.073-39.944 0-22.142 16.984-40.056 40.073-40.056m82.334 0c22.978 0 40.073 17.914 40.073 40.056 0 22.03-17.095 39.944-40.073 39.944-23.089 0-40.072-17.914-40.072-39.944 0-22.142 16.983-40.056 40.072-40.056m0 57.302c9.769 0 17.095-7.343 17.095-17.246s-7.326-17.246-17.095-17.246c-9.879 0-17.205 7.343-17.205 17.246s7.326 17.246 17.205 17.246m75.158-55.855c23.089 0 39.407 16.467 39.407 38.609 0 21.697-16.651 38.498-39.74 38.498h-32.191V79.267zm-.333 55.076c10.213 0 16.873-6.564 16.873-16.467s-6.66-16.467-16.873-16.467h-9.435v32.934zm93.439-32.712H330.88v7.344h28.861v17.913H330.88v6.899h28.861v22.587h-51.617V79.267h51.617zm48.558 24.144 15.313 30.599h-28.306l-6.137-28.484h-3.632v28.484h-22.755V79.267h31.525c14.43 0 26.197 10.125 26.197 24.923 0 9.347-5.989 17.802-12.205 21.585m-16.323-13.907c3.552 0 5.772-2.003 5.772-5.452 0-3.338-2.22-5.564-5.772-5.564h-6.439v11.016zm76.046-32.601h22.756v77.107h-22.756v-29.152h-19.093v29.152h-22.756V79.267h22.756v27.705h19.093zm140.326-.723h23.089v51.404c0 15.021-10.102 27.149-27.752 27.149-17.538 0-27.64-12.128-27.64-27.149V78.544h23.089v49.735c0 2.893 1.332 5.452 4.551 5.452 3.331 0 4.663-2.559 4.663-5.452zm65.909 33.157c6.661 3.338 13.21 9.791 13.21 19.805 0 15.021-10.878 26.259-27.196 26.259-16.207 0-26.752-11.683-26.752-26.259v-2.559h20.425v1.446c0 3.895 1.998 7.121 5.883 7.121 3.108 0 5.106-1.891 5.106-4.673 0-2.114-1.11-3.56-2.997-4.562l-14.764-7.455c-6.771-3.337-12.765-11.126-12.765-20.361 0-12.684 10.212-22.587 26.086-22.587 16.096 0 25.642 10.236 25.642 22.142v3.004h-18.982v-.89c0-3.004-2.22-6.008-5.994-6.008-3.108 0-4.773 1.78-4.773 4.116 0 2.56 1.776 3.45 3.33 4.117zm38.048-10.07h28.861V79.267h-51.617v77.107h51.617v-22.587h-28.861v-6.899h28.861v-17.913h-28.861zM533 79c22.363 0 39 17.466 39 39.054 0 21.48-16.637 38.946-39 38.946-22.472 0-39-17.466-39-38.946C494 96.466 510.528 79 533 79"/><mask id="a" width="80" height="80" x="493" y="78" maskUnits="userSpaceOnUse" style="mask-type:alpha"><path fill="#F8F2E8" d="M573 118c0 22.091-17.909 40-40 40s-40-17.909-40-40 17.909-40 40-40 40 17.909 40 40m-27.052-23.34 5.907-1.91-1.119-4.572-1.679-5.415c-5.049-2.404-10.37-3.622-15.952-3.603-4.033 1.058-7.81 2.679-11.402 4.83.675 2.931 1.216 5.815 1.577 8.78l7.688 1.917 8.363 2.942 6.615-2.967zm-34.876 11.832c3.148-4.535 6.49-8.568 10.176-12.424l.988-1.071a88 88 0 0 0-1.524-8.638c-3.55.26-6.978.924-10.397 1.98-4.694 3.438-8.566 7.732-11.4 12.809.155 3.239.599 6.328 1.299 9.473 3.686-.927 7.222-1.574 10.858-2.126zm53.132 13.862c.461-2.756.833-5.429.927-8.236l-.194-7.191-1.563-1.63c-3.37-3.533-7.081-6.672-11.017-9.567-4.382 1.118-8.46 2.742-12.468 4.835-.408 5.687-.71 11.333-.816 17.056 3.8 2.665 7.181 5.624 10.453 8.805l1.713 1.621 5.224-2.115 7.738-3.584zm3.372 5.723 1.358 5.571.735-.502c3.306-9.388 3.02-19.669-1.03-28.823L566 104.924c.297 3.281.483 6.489.041 9.748l-.818 6.043zm-62.413 12.002 6.079-.522 5.762-1.252c.888-5.007 1.973-9.834 3.425-14.622l-9.426-14.086a103 103 0 0 0-10.759 2.098l-2.251 7.478c-.491 2.72-.782 5.326-1.021 8.11 2.032 4.811 4.752 8.846 8.194 12.793zm41.596 4.297 1.926-6.998 1.854-8.504-2.42-2.335c-3.037-2.928-6.223-5.629-9.681-8.074l-16.985 5.488c-1.468 4.862-2.517 9.637-3.419 14.577l2.131 2.107c3.362 3.225 7.028 6.026 10.961 8.496 5.674-.852 10.492-2.387 15.633-4.76zm-48.377-11.833-2.293-4.58-1.274-.288c1.793 8.793 6.534 16.676 13.404 22.327-1.752-3.042-2.992-5.954-3.819-9.171-2.29-2.617-4.286-5.307-6.021-8.288zm59.285 17.57 3.82-3.6c3.178-3.383 5.781-7.311 7.441-11.666l-3.594 5.804c-2.038 2.803-4.294 5.343-6.923 7.602l-.744 1.857zm-2.195 1.685 1.751-3.414-5.174-.924-5.015-2.052c-5.021 2.351-10.204 3.964-15.641 4.741-1.158 3.131-2.82 5.815-5.257 8.224 10.481 1.705 20.653-.505 29.338-6.575z"/></mask><g mask="url(#a)"><path fill="#F8F2E8" d="M493 50h121v149H493z"/></g></svg>