<?xml version="1.0" encoding="utf-8"?>
<!-- Generator: Adobe Illustrator 25.4.1, SVG Export Plug-In . SVG Version: 6.00 Build 0)  -->
<svg version="1.1" id="Layer_1" xmlns="http://www.w3.org/2000/svg" xmlns:xlink="http://www.w3.org/1999/xlink" x="0px" y="0px"
	 viewBox="0 0 400 201" style="enable-background:new 0 0 400 201;" xml:space="preserve">
<style type="text/css">
	.st0{fill:#4C1413;}
	.st1{fill-rule:evenodd;clip-rule:evenodd;fill:#714243;}
	.st2{fill-rule:evenodd;clip-rule:evenodd;fill:#A5A096;}
	.st3{fill-rule:evenodd;clip-rule:evenodd;fill:#C89211;}
	.st4{fill:#C89211;}
	.st5{fill-rule:evenodd;clip-rule:evenodd;fill:#009ADE;}
	.st6{fill-rule:evenodd;clip-rule:evenodd;fill:#FFFFFF;}
	.st7{fill-rule:evenodd;clip-rule:evenodd;fill:#4C1413;}
	.st8{fill-rule:evenodd;clip-rule:evenodd;fill:#006937;}
</style>
<g>
	<g>
		<path class="st0" d="M209.6,72.8c0.5,0,2.4-0.1,5.6-0.2c0.1,0.2,0.1,0.5,0.1,0.7c0,0.5-0.1,0.8-0.2,0.8c-0.2,0-0.7,0.1-1.4,0.3
			c-0.7,0.2-1.1,0.4-1.2,0.6c-0.2,0.7-0.3,1.9-0.3,3.4v15c0,4.5-1.1,8.1-3.2,10.7c-2.1,2.6-5,3.8-8.7,3.8c-0.9,0-1.7-0.2-2.3-0.7
			c-0.4-0.6-0.6-1.3-0.6-2.1c0-0.7,0.2-1.2,0.8-1.7c0.5-0.5,1.1-0.7,1.8-0.7c0.6,0,1.3,0.4,2.1,1.2c0.7,0.8,1.3,1.2,1.7,1.2
			c1.2,0,1.9-0.9,2.3-2.8c0.4-1.9,0.6-4.7,0.6-8.5V78.1c0-1.7-0.1-2.8-0.3-3.1c-0.1-0.2-0.5-0.4-1.1-0.7c-0.6-0.2-1.1-0.3-1.4-0.3
			c-0.1,0-0.1-0.2-0.1-0.7s0-0.8,0.1-0.8C207.4,72.7,209.4,72.8,209.6,72.8z"/>
		<path class="st0" d="M223.6,72.8c0.5,0,2.4-0.1,5.6-0.2c0.1,0.2,0.1,0.5,0.1,0.7c0,0.5-0.1,0.8-0.2,0.8c-0.2,0-0.7,0.1-1.4,0.3
			c-0.7,0.2-1.1,0.4-1.2,0.6c-0.2,0.7-0.3,1.9-0.3,3.4v9.5c0,2.5,0.6,4.4,1.7,5.9c1.1,1.5,2.6,2.2,4.5,2.2c2,0,3.6-0.7,4.9-1.9
			c1.3-1.3,1.9-3.5,1.9-6.5V78c0-1.5-0.2-2.5-0.5-2.9c-0.2-0.3-0.7-0.6-1.5-0.8s-1.3-0.4-1.6-0.4c-0.1,0-0.2-0.2-0.2-0.7
			c0-0.4,0-0.7,0.1-0.8c2.5,0.2,4.2,0.3,5.3,0.3c0.7,0,1.6,0,2.7-0.1c1.2-0.1,1.9-0.2,2.2-0.2c0.1,0.2,0.2,0.5,0.2,0.7
			c0,0.5-0.1,0.8-0.2,0.8c-1.5,0-2.6,0.4-3.3,1.3c-0.4,0.5-0.6,1.4-0.6,2.9v9.2c0,3.9-1,6.9-2.9,8.9s-4.4,3-7.4,3
			c-3.3,0-5.9-1-7.9-3.1c-2-2-3-5.2-3-9.6V78c0-1.7-0.1-2.8-0.3-3.1c-0.1-0.2-0.5-0.4-1.1-0.7c-0.6-0.2-1.1-0.3-1.4-0.3
			c-0.1,0-0.2-0.2-0.2-0.7s0-0.8,0.1-0.8C221.5,72.7,223.4,72.8,223.6,72.8z"/>
		<path class="st0" d="M254.4,72.7h7c4.4,0,7.8,1.3,10.2,3.9c2.5,2.6,3.7,5.6,3.7,9.1c0,3.8-1.2,7.1-3.7,9.7s-5.9,3.9-10.2,3.9
			c-0.5,0-1.5,0-3.1-0.1s-2.8-0.1-3.8-0.1l-5.9,0.2c-0.1-0.1-0.2-0.3-0.2-0.7c0-0.5,0.1-0.8,0.2-0.8c0.3,0,0.8-0.1,1.5-0.3
			c0.7-0.2,1.1-0.4,1.1-0.6c0.2-0.6,0.2-1.8,0.2-3.5V78.2c0-1.5-0.1-2.5-0.2-3.1c-0.1-0.2-0.5-0.5-1.2-0.7c-0.7-0.3-1.2-0.4-1.5-0.4
			c-0.1,0-0.2-0.2-0.2-0.7c0-0.4,0-0.7,0.1-0.8C250.7,72.6,252.6,72.7,254.4,72.7z M257.1,78.1v15.6c0,1.7,0.1,2.7,0.4,2.8
			c0.6,0.3,2.1,0.5,4.5,0.5c2.2,0,4-1,5.2-2.9s1.9-4.8,1.9-8.6c0-2.9-0.6-5.4-1.9-7.5s-3.1-3.1-5.4-3.1h-0.2c-2.3,0-3.6,0.2-3.9,0.6
			C257.3,76,257.1,76.9,257.1,78.1z"/>
		<path class="st0" d="M280.9,78.1c0-1.7-0.1-2.8-0.3-3.1c-0.1-0.2-0.5-0.4-1.1-0.7c-0.6-0.2-1.1-0.3-1.4-0.3
			c-0.1,0-0.2-0.2-0.2-0.7s0-0.8,0.1-0.8c0.4,0,1,0.1,1.9,0.1c0.9,0.1,1.6,0.1,2,0.1s1.1,0,1.9,0c0.5,0,2.4-0.1,5.6-0.2
			c0.1,0.2,0.1,0.5,0.1,0.7c0,0.5-0.1,0.8-0.2,0.8c-0.2,0-0.7,0.1-1.5,0.3c-0.7,0.2-1.1,0.4-1.2,0.6c-0.1,0.3-0.1,0.8-0.2,1.3
			c-0.1,0.6-0.1,1.1-0.1,1.5v0.6v14.8c0,1.5,0.1,2.7,0.3,3.5c0,0.2,0.4,0.4,1.1,0.6s1.1,0.4,1.4,0.4c0.1,0,0.2,0.2,0.2,0.8
			c0,0.3,0,0.6-0.1,0.7c-0.2,0-1-0.1-2.4-0.2s-2.5-0.2-3.2-0.2s-1.8,0.1-3.2,0.1c-1.4,0.1-2.3,0.2-2.6,0.2c-0.1-0.1-0.2-0.3-0.2-0.6
			c0-0.6,0-0.8,0.1-0.8c0.3,0,0.8-0.1,1.5-0.3c0.7-0.2,1.1-0.4,1.2-0.7c0.2-0.7,0.3-1.8,0.3-3.2L280.9,78.1L280.9,78.1z"/>
		<path class="st0" d="M315.6,91.9c0,0.4-0.2,1.4-0.6,3.1s-0.8,2.6-1,2.7c-3,1.1-6,1.6-9,1.6c-3.5,0-6.5-1.3-9.1-3.9
			c-2.5-2.6-3.8-5.7-3.8-9.3c0-3.8,1.3-7.1,3.8-9.8c2.5-2.7,5.7-4.1,9.5-4.1c2.9,0,6,0.4,9.2,1.2c0.1,0,0.3,0.9,0.5,2.7
			c0.2,1.8,0.3,2.8,0.3,3.2S315,80,314.2,80c0,0-0.2,0-0.6-0.1c-0.1-0.5-0.4-1-0.6-1.5c-0.3-0.5-0.8-1.1-1.4-1.7s-1.4-1.1-2.5-1.5
			s-2.2-0.6-3.5-0.6c-4.8,0-7.2,3.6-7.2,10.8c0,3.3,0.7,6.2,2.2,8.4c1.5,2.3,3.6,3.4,6.2,3.4c2,0,3.7-0.7,5.1-2.2
			c0.4-0.3,0.7-0.8,1-1.4s0.5-1.1,0.6-1.5s0.2-0.6,0.3-0.6C314.9,91.5,315.5,91.6,315.6,91.9z"/>
		<path class="st0" d="M321.2,78.1c0-1.7-0.1-2.8-0.3-3.1c-0.1-0.2-0.5-0.4-1.1-0.7c-0.6-0.2-1.1-0.3-1.4-0.3
			c-0.1,0-0.2-0.2-0.2-0.7s0-0.8,0.1-0.8c0.4,0,1,0.1,1.9,0.1c0.9,0.1,1.5,0.1,2,0.1s1.1,0,1.9,0c0.5,0,2.4-0.1,5.6-0.2
			c0.1,0.2,0.1,0.5,0.1,0.7c0,0.5-0.1,0.8-0.2,0.8c-0.2,0-0.7,0.1-1.5,0.3c-0.7,0.2-1.1,0.4-1.2,0.6c-0.1,0.3-0.1,0.8-0.2,1.3
			c0,0.6-0.1,1.1-0.1,1.5v0.6v14.8c0,1.5,0.1,2.7,0.3,3.5c0,0.2,0.4,0.4,1.1,0.6s1.1,0.4,1.4,0.4c0.1,0,0.2,0.2,0.2,0.8
			c0,0.3,0,0.6-0.1,0.7c-0.2,0-1-0.1-2.4-0.2s-2.5-0.2-3.2-0.2s-1.8,0.1-3.2,0.1c-1.4,0.1-2.3,0.2-2.6,0.2c-0.1-0.1-0.2-0.3-0.2-0.6
			c0-0.6,0-0.8,0.1-0.8c0.3,0,0.8-0.1,1.5-0.3c0.7-0.2,1.1-0.4,1.2-0.7c0.2-0.7,0.3-1.8,0.3-3.2L321.2,78.1L321.2,78.1z"/>
		<path class="st0" d="M348.3,97.8c0.6,0,1.2-0.1,1.8-0.4c0.6-0.2,0.9-0.6,0.9-1c0-0.1-0.3-0.9-1-2.7l-1.2-2.9
			c-0.1-0.1-0.2-0.2-0.3-0.2c-0.5,0-1.8,0-3.8,0c-1.8,0-3.1,0-4,0c-0.1,0-0.2,0.1-0.3,0.2l-1.3,3.1c-0.5,1.2-0.8,2-0.8,2.4
			s0.2,0.8,0.7,1s0.9,0.4,1.3,0.4c0.4,0.1,0.7,0.1,0.9,0.1c0.1,0,0.1,0.2,0.1,0.6s0,0.7-0.1,0.8c-0.4,0-1.1-0.1-2.1-0.2
			c-1.1-0.1-1.9-0.1-2.6-0.1S335,99,334.1,99c-0.9,0.1-1.6,0.2-2.2,0.2c-0.1-0.1-0.2-0.3-0.2-0.6c0-0.6,0-0.8,0.1-0.8
			c0.3,0,0.9-0.1,1.6-0.4s1.2-0.6,1.4-0.9c0.2-0.3,0.4-0.7,0.7-1.2c0.2-0.5,0.4-0.8,0.5-1.2l0.2-0.5l8.9-20.4
			c0.3-0.7,0.8-1.1,1.5-1.1c0.4,0,0.7,0.2,1,0.5l8.2,20.3c0.5,1.2,1,2.3,1.3,3.3c0.2,0.4,0.6,0.8,1.3,1c0.7,0.2,1.3,0.3,1.6,0.3
			c0.1,0,0.2,0.2,0.2,0.7c0,0.4,0,0.7-0.1,0.8c-0.1,0-0.9-0.1-2.5-0.2c-1.5-0.1-2.7-0.2-3.4-0.2c-0.2,0-2.2,0.1-6.1,0.3
			c-0.1-0.1-0.1-0.4-0.1-0.8C348.2,98,348.2,97.8,348.3,97.8z M341.8,88c0.8,0.1,1.8,0.1,3,0.1c1.1,0,2,0,2.8-0.1l0.1-0.2l-2.9-7.2
			l-3.1,7.2C341.7,88,341.7,88,341.8,88z"/>
		<path class="st0" d="M367.7,72.8c0.5,0,2.4-0.1,5.6-0.2c0.1,0.2,0.1,0.5,0.1,0.7c0,0.5,0,0.8-0.2,0.8s-0.7,0.1-1.4,0.3
			c-0.7,0.2-1.1,0.4-1.2,0.6c-0.2,0.7-0.3,1.8-0.3,3.2v15.2c0,1.3,0.1,2.3,0.3,2.9c0.1,0.4,1,0.6,2.7,0.6h1c1.6,0,3.1-0.3,4.5-1
			c0.5-0.2,1-0.7,1.5-1.4c0.6-0.7,1-1.4,1.3-2.2c0.1-0.2,0.2-0.2,0.6-0.2c0.6,0,1,0.1,1.2,0.2c-1.3,3.7-2,6-2.2,6.9
			c-1.5,0-3.9,0-7.1-0.1s-5.4-0.1-6.6-0.1l-5.9,0.2c-0.1-0.1-0.2-0.3-0.2-0.7c0-0.5,0.1-0.8,0.2-0.8c0.3,0,0.8-0.1,1.5-0.3
			c0.7-0.2,1.1-0.4,1.1-0.6c0.2-0.6,0.2-1.8,0.2-3.5V78c0-1.6-0.1-2.6-0.3-3c-0.1-0.2-0.5-0.4-1.1-0.7c-0.6-0.2-1.1-0.3-1.4-0.3
			c-0.1,0-0.2-0.2-0.2-0.7s0-0.8,0.1-0.8C365.6,72.7,367.5,72.8,367.7,72.8z"/>
	</g>
	<g>
		<path class="st0" d="M209.7,29.6c0.8,0,1.6,0,2.6-0.1c0.9,0,1.8-0.1,2.6-0.1c1.6,0,3.1,0.2,4.5,0.6s2.6,1.2,3.6,2.4
			c1.1,1.2,1.6,2.6,1.6,4.3c0,2.2-0.8,4-2.5,5.6s-3.7,2.4-6.1,2.4c-0.4,0-0.9-0.1-1.3-0.2s-0.8-0.3-1-0.4c-0.2-0.1-0.3-0.2-0.4-0.3
			c-0.1-0.2-0.2-0.5-0.2-0.9s0-0.6,0.2-0.6c0.4,0.2,0.9,0.3,1.8,0.3c2.2,0,3.4-1.8,3.4-5.5s-1.2-5.5-3.7-5.5c-0.9,0-1.6,0.1-1.8,0.3
			c-0.3,0.2-0.5,1.5-0.5,3.9v14.4c0,1.4,0.1,2.5,0.3,3.3c0.1,0.3,0.5,0.6,1.3,0.8s1.4,0.3,1.8,0.3c0.1,0,0.2,0.3,0.2,0.8
			c0,0.3,0,0.6-0.1,0.7c-3.2-0.2-5.3-0.2-6.1-0.2l-5.9,0.2c-0.1-0.1-0.2-0.3-0.2-0.7c0-0.5,0.1-0.8,0.2-0.8c0.3,0,0.8-0.1,1.5-0.3
			s1.1-0.4,1.1-0.6c0.2-0.6,0.2-1.8,0.2-3.5V35.1c0-1.5-0.1-2.5-0.2-3.1c-0.1-0.2-0.5-0.5-1.2-0.7c-0.7-0.3-1.2-0.4-1.5-0.4
			c-0.1,0-0.2-0.2-0.2-0.7c0-0.4,0-0.7,0.1-0.8C206.2,29.5,208.2,29.6,209.7,29.6z"/>
		<path class="st0" d="M230.8,52.4c-2.5-2.7-3.8-5.8-3.8-9.6c0-3.7,1.3-6.9,3.8-9.6c2.5-2.7,5.6-4,9.1-4s6.6,1.3,9.1,4
			s3.8,5.9,3.8,9.6s-1.3,6.9-3.8,9.6c-2.6,2.7-5.6,4-9.1,4S233.3,55.1,230.8,52.4z M239.3,31.5c-1.4,0-2.6,0.5-3.5,1.5
			s-1.6,2.3-1.9,3.8c-0.4,1.5-0.6,3.2-0.6,5.1c0,1.4,0.1,2.7,0.4,4c0.2,1.3,0.6,2.6,1.2,3.9c0.5,1.3,1.3,2.3,2.3,3.1
			s2.1,1.2,3.4,1.2c2,0,3.5-1,4.5-3s1.5-4.5,1.5-7.5c0-1.5-0.1-2.9-0.3-4.2s-0.6-2.6-1.1-3.9s-1.2-2.2-2.2-3
			C241.9,31.9,240.7,31.5,239.3,31.5z"/>
		<path class="st0" d="M261.3,29.6h7c4.4,0,7.8,1.3,10.2,3.9c2.5,2.6,3.7,5.6,3.7,9.1c0,3.8-1.2,7.1-3.7,9.7
			c-2.5,2.6-5.9,3.9-10.2,3.9c-0.5,0-1.6,0-3.1-0.1c-1.6-0.1-2.8-0.1-3.8-0.1l-5.9,0.2c-0.1-0.1-0.2-0.3-0.2-0.7
			c0-0.5,0.1-0.8,0.2-0.8c0.3,0,0.8-0.1,1.5-0.3s1.1-0.4,1.1-0.6c0.2-0.6,0.2-1.8,0.2-3.5V35.1c0-1.5-0.1-2.5-0.2-3.1
			c-0.1-0.2-0.5-0.5-1.2-0.7c-0.7-0.3-1.2-0.4-1.5-0.4c-0.1,0-0.2-0.2-0.2-0.7c0-0.4,0-0.7,0.1-0.8
			C257.6,29.5,259.5,29.6,261.3,29.6z M264,35v15.6c0,1.7,0.1,2.7,0.4,2.8c0.6,0.3,2.1,0.5,4.5,0.5c2.2,0,4-1,5.2-2.9
			s1.8-4.8,1.8-8.6c0-2.9-0.6-5.4-2-7.5c-1.3-2-3.1-3.1-5.4-3.1h-0.2c-2.3,0-3.6,0.2-3.9,0.6C264.2,32.9,264,33.8,264,35z"/>
		<path class="st0" d="M290.8,29.6c1.2,0,3.2,0,6.2-0.1s5.2-0.1,6.7-0.1c0,0.3,0.4,2.2,1.2,5.9c-0.1,0.1-0.4,0.2-0.9,0.2
			c-0.3,0-0.5-0.1-0.6-0.3c-0.5-1-1.3-1.9-2.4-2.6c-1.1-0.7-2.2-1.1-3.2-1.1h-1.5c-1.7,0-2.6,0.2-2.6,0.5c-0.1,0.6-0.2,1.7-0.2,3.1
			v6.2c0,0.2,0.6,0.2,1.7,0.2h2.1c1.7,0,2.6,0,2.7-0.2c0.1-0.1,0.2-0.5,0.3-1.2c0-0.4,0.1-0.8,0.2-1.2c0-0.2,0.2-0.3,0.6-0.3
			c0.5,0,0.7,0.1,0.9,0.2v7.6c-0.1,0.1-0.4,0.2-0.8,0.2s-0.6-0.1-0.6-0.3c-0.1-0.4-0.2-0.7-0.3-1c-0.1-0.3-0.1-0.5-0.2-0.6
			c0-0.1-0.1-0.2-0.2-0.4c-0.1-0.1-0.1-0.2-0.1-0.2s-0.1-0.1-0.2-0.1s-0.1-0.1-0.2-0.1c-0.4-0.2-1.4-0.3-3.1-0.3
			c-1.9,0-2.9,0.1-2.9,0.4v6.2c0,1.3,0.1,2.2,0.3,2.8c0.1,0.4,1,0.7,2.7,0.7h1c1.7,0,3.2-0.3,4.5-1c0.5-0.2,1-0.7,1.5-1.4
			c0.6-0.7,1-1.4,1.4-2.2c0-0.2,0.2-0.2,0.6-0.2c0.6,0,1,0.1,1.2,0.2c-1.3,3.7-2,6-2.2,6.9c-1.4,0-3.5,0-6.5-0.1
			c-3,0-5.4-0.1-7.2-0.1l-5.9,0.2c-0.1-0.1-0.2-0.3-0.2-0.7c0-0.5,0.1-0.8,0.2-0.8c0.3,0,0.8-0.1,1.5-0.3s1.1-0.4,1.1-0.6
			c0.2-0.6,0.2-1.8,0.2-3.5v-15c0-1.5-0.1-2.5-0.2-3.1c-0.1-0.2-0.5-0.5-1.2-0.7c-0.7-0.3-1.2-0.4-1.5-0.4c-0.1,0-0.2-0.2-0.2-0.7
			c0-0.4,0-0.7,0.1-0.8C287,29.5,289,29.6,290.8,29.6z"/>
		<path class="st0" d="M320.9,29.4c0.9,0,1.9,0.1,2.9,0.3c1,0.2,2,0.6,3,1.1s1.8,1.2,2.5,2.1c0.6,0.9,1,2,1,3.2
			c0,1.8-0.5,3.3-1.6,4.7c-1,1.3-2.2,2.2-3.4,2.6c-0.2,0.1-0.3,0.2-0.1,0.4c0.6,1,1.1,1.8,1.5,2.5s0.9,1.4,1.5,2.2s1,1.4,1.4,1.9
			c0.7,1,1.5,1.9,2.6,2.8c1.1,0.9,2.1,1.3,3.1,1.3c0.1,0.1,0.2,0.4,0.2,0.7s-0.1,0.6-0.2,0.8c-0.4,0.1-0.8,0.1-1.4,0.1
			c-1.3,0-2.5-0.1-3.6-0.4c-1.1-0.2-2-0.5-2.6-0.9s-1.3-0.8-2-1.4s-1.1-1.2-1.5-1.6c-0.3-0.4-0.8-1.1-1.3-1.9c-0.3-0.4-0.6-1-1-1.7
			s-0.8-1.2-1-1.6c-0.3-0.4-0.5-0.8-0.8-1.2s-0.5-0.8-0.7-1S319,44,318.9,44s-0.2,0-0.4,0c-0.2,0-0.4,0.2-0.4,0.6v5.5
			c0,1.4,0.1,2.5,0.3,3.3c0.1,0.3,0.5,0.6,1.3,0.8s1.4,0.3,1.8,0.3c0.1,0,0.2,0.3,0.2,0.8c0,0.3,0,0.6-0.1,0.7
			c-3.2-0.2-5.3-0.2-6.1-0.2l-5.9,0.2c-0.1-0.1-0.2-0.3-0.2-0.7c0-0.5,0.1-0.8,0.2-0.8c0.3,0,0.8-0.1,1.5-0.3s1.1-0.4,1.1-0.6
			c0.2-0.6,0.2-1.8,0.2-3.5V35c0-1.5-0.1-2.5-0.2-3.1c-0.1-0.2-0.5-0.5-1.2-0.7c-0.7-0.3-1.2-0.4-1.5-0.4c-0.1,0-0.2-0.2-0.2-0.7
			c0-0.4,0-0.7,0.1-0.8c2.5,0.1,4.4,0.2,5.9,0.2c0.7,0,1.6,0,2.8,0C319.2,29.4,320.1,29.4,320.9,29.4z M320.3,31.6
			c-0.9,0-1.5,0.1-1.8,0.3s-0.5,1.5-0.5,3.9v4.3c0,0.4,0,0.7,0.1,1c0.1,0.2,0.2,0.4,0.4,0.5c0.2,0.1,0.4,0.2,0.5,0.2
			c0.2,0,0.4,0,0.6,0h1.1c1,0,1.9-0.5,2.4-1.4c0.6-0.9,0.9-2.1,0.9-3.6C324.1,33.4,322.8,31.6,320.3,31.6z"/>
	</g>
</g>
<g>
	<path class="st0" d="M208.4,121.9c2.6,0,4.4,0.5,5.6,1.5c1.2,1,1.8,2.4,1.8,4.3c0,0.8-0.1,1.7-0.4,2.4c-0.3,0.8-0.7,1.4-1.3,2
		s-1.4,1-2.4,1.4c-1,0.3-2.2,0.5-3.7,0.5h-2.4v7.8h-2.3v-19.9H208.4z M208.2,123.9h-2.7v8.1h2.2c1.3,0,2.3-0.1,3.2-0.4
		c0.9-0.3,1.5-0.7,1.9-1.3s0.6-1.4,0.6-2.4c0-1.3-0.4-2.3-1.3-3C211.3,124.2,210,123.9,208.2,123.9z"/>
	<path class="st0" d="M226.4,121.9c1.6,0,3,0.2,4.1,0.6s1.9,1,2.4,1.8s0.8,1.9,0.8,3.2c0,1-0.2,1.9-0.6,2.6
		c-0.4,0.7-0.9,1.3-1.5,1.7s-1.3,0.8-2,1l5.5,9h-2.7l-4.9-8.3h-4.1v8.3H221v-19.9H226.4L226.4,121.9z M226.3,123.9h-2.9v7.6h3.2
		c1.6,0,2.8-0.3,3.6-1s1.1-1.6,1.1-2.9c0-1.4-0.4-2.3-1.2-2.9C229.2,124.2,228,123.9,226.3,123.9z"/>
	<path class="st0" d="M256.5,131.8c0,1.5-0.2,2.9-0.6,4.2s-1,2.3-1.7,3.2c-0.8,0.9-1.7,1.6-2.9,2.1c-1.1,0.5-2.5,0.7-3.9,0.7
		c-1.6,0-2.9-0.2-4-0.7s-2.1-1.2-2.9-2.1s-1.3-2-1.7-3.2c-0.4-1.3-0.6-2.7-0.6-4.2c0-2,0.3-3.8,1-5.3s1.7-2.7,3.1-3.6
		c1.4-0.8,3.1-1.3,5.1-1.3s3.6,0.4,5,1.3c1.4,0.8,2.4,2,3.1,3.6C256.2,127.9,256.5,129.7,256.5,131.8z M240.7,131.8
		c0,1.7,0.2,3.1,0.7,4.4c0.5,1.2,1.2,2.2,2.2,2.9s2.3,1,3.8,1c1.6,0,2.8-0.3,3.8-1s1.7-1.6,2.2-2.9c0.5-1.2,0.7-2.7,0.7-4.4
		c0-2.6-0.5-4.6-1.6-6s-2.8-2.2-5-2.2c-1.6,0-2.8,0.3-3.8,1s-1.7,1.6-2.2,2.8C240.9,128.6,240.7,130.1,240.7,131.8z"/>
	<path class="st0" d="M275.9,121.9l-7.1,19.9h-2.3l-7.1-19.9h2.4l4.7,13.1c0.2,0.5,0.4,1,0.5,1.5s0.3,0.9,0.4,1.4
		c0.1,0.4,0.2,0.9,0.3,1.3c0.1-0.4,0.2-0.9,0.3-1.3s0.3-0.9,0.4-1.4c0.2-0.5,0.3-1,0.5-1.5l4.6-13.1
		C273.5,121.9,275.9,121.9,275.9,121.9z"/>
	<path class="st0" d="M279.6,141.8v-19.9h2.3v19.9H279.6z"/>
	<path class="st0" d="M304,141.8h-2.7l-10.9-16.7h-0.1c0,0.4,0.1,0.9,0.1,1.5s0.1,1.2,0.1,1.8s0,1.3,0,2v11.4h-2.1v-19.9h2.7
		l10.8,16.7h0.1c0-0.3,0-0.8-0.1-1.4c0-0.6,0-1.2-0.1-1.9c0-0.7,0-1.3,0-1.9v-11.5h2.2V141.8L304,141.8z"/>
	<path class="st0" d="M319,123.6c-1.1,0-2.1,0.2-3,0.6s-1.6,0.9-2.2,1.6s-1.1,1.6-1.4,2.6s-0.5,2.1-0.5,3.4c0,1.7,0.3,3.1,0.8,4.4
		c0.5,1.2,1.3,2.2,2.3,2.9s2.3,1,3.9,1c0.9,0,1.7-0.1,2.5-0.2c0.8-0.2,1.5-0.4,2.3-0.6v2c-0.7,0.3-1.5,0.5-2.3,0.6s-1.8,0.2-2.9,0.2
		c-2,0-3.7-0.4-5.1-1.3s-2.4-2-3-3.6c-0.7-1.5-1-3.3-1-5.4c0-1.5,0.2-2.9,0.6-4.1c0.4-1.2,1-2.3,1.9-3.2s1.8-1.6,3-2.1
		s2.5-0.7,4.1-0.7c1,0,2,0.1,2.9,0.3c0.9,0.2,1.8,0.5,2.5,0.8l-0.9,2c-0.6-0.3-1.3-0.5-2.1-0.8C320.7,123.8,319.9,123.6,319,123.6z"
		/>
	<path class="st0" d="M329.1,141.8v-19.9h2.3v19.9H329.1z"/>
	<path class="st0" d="M350.4,141.8l-2.5-6.3h-8l-2.4,6.3h-2.3l7.8-20h2.1l7.7,20H350.4z M347.2,133.4l-2.3-6.3
		c-0.1-0.2-0.1-0.4-0.3-0.8c-0.1-0.4-0.2-0.8-0.4-1.2c-0.1-0.4-0.2-0.7-0.3-1c-0.1,0.4-0.2,0.7-0.3,1.1c-0.1,0.4-0.2,0.7-0.3,1
		c-0.1,0.3-0.2,0.6-0.3,0.8l-2.4,6.3h6.6L347.2,133.4L347.2,133.4z"/>
	<path class="st0" d="M383.5,131.6c0,2.2-0.4,4.1-1.2,5.6c-0.8,1.5-2,2.6-3.5,3.4c-1.5,0.8-3.4,1.1-5.6,1.1h-5.4v-19.9h6
		c2,0,3.8,0.4,5.2,1.1c1.5,0.7,2.6,1.8,3.4,3.3C383.1,127.7,383.5,129.5,383.5,131.6z M381,131.7c0-1.8-0.3-3.3-0.9-4.4
		c-0.6-1.2-1.5-2-2.6-2.6s-2.6-0.8-4.2-0.8H370v16h2.8c2.7,0,4.8-0.7,6.2-2C380.3,136.4,381,134.4,381,131.7z"/>
	<path class="st0" d="M400,141.8h-11.1v-19.9H400v2.1h-8.8v6.4h8.3v2h-8.3v7.4h8.8V141.8z"/>
	<path class="st0" d="M203.1,150.6h5.6c2.5,0,4.4,0.4,5.6,1.1c1.2,0.7,1.9,2,1.9,3.8c0,0.8-0.1,1.5-0.4,2.1
		c-0.3,0.6-0.7,1.1-1.3,1.5s-1.3,0.7-2.1,0.8v0.1c0.9,0.1,1.6,0.4,2.3,0.8c0.7,0.4,1.2,0.9,1.6,1.5c0.4,0.7,0.6,1.5,0.6,2.5
		c0,1.2-0.3,2.3-0.9,3.1c-0.6,0.8-1.4,1.5-2.4,1.9s-2.3,0.7-3.7,0.7H203L203.1,150.6L203.1,150.6z M205.4,159.2h3.8
		c1.7,0,2.9-0.3,3.6-0.9c0.7-0.6,1-1.4,1-2.5s-0.4-1.9-1.2-2.5c-0.8-0.5-2.1-0.7-3.8-0.7h-3.4L205.4,159.2L205.4,159.2z
		 M205.4,161.1v7.4h4.1c1.8,0,3-0.4,3.8-1c0.7-0.7,1.1-1.6,1.1-2.8c0-0.8-0.2-1.4-0.5-1.9s-0.9-0.9-1.6-1.2c-0.7-0.3-1.7-0.4-3-0.4
		L205.4,161.1L205.4,161.1z"/>
	<path class="st0" d="M236.9,150.6v12.9c0,1.4-0.3,2.7-0.9,3.8c-0.6,1.1-1.4,2-2.6,2.6c-1.1,0.6-2.6,0.9-4.3,0.9
		c-2.5,0-4.3-0.7-5.6-2s-1.9-3.1-1.9-5.4v-12.8h2.3v12.9c0,1.7,0.4,3,1.4,3.9c0.9,0.9,2.2,1.4,4,1.4c1.2,0,2.2-0.2,3-0.7
		c0.8-0.4,1.4-1.1,1.7-1.9c0.4-0.8,0.6-1.7,0.6-2.8v-12.9h2.3V150.6z"/>
	<path class="st0" d="M254,170.6h-11.1v-19.9H254v2.1h-8.8v6.4h8.3v2h-8.3v7.4h8.8V170.6z"/>
	<path class="st0" d="M274.8,170.6h-2.7l-10.9-16.7h-0.1c0,0.4,0.1,0.9,0.1,1.5s0.1,1.2,0.1,1.8s0,1.3,0,2v11.4h-2.1v-19.9h2.6
		l10.8,16.7h0.1c0-0.3,0-0.8-0.1-1.4c0-0.6-0.1-1.2-0.1-1.9s0-1.3,0-1.9v-11.5h2.2L274.8,170.6L274.8,170.6z"/>
	<path class="st0" d="M298.2,160.6c0,1.5-0.2,2.9-0.6,4.2s-1,2.3-1.7,3.2c-0.8,0.9-1.7,1.6-2.9,2.1c-1.1,0.5-2.5,0.7-3.9,0.7
		c-1.5,0-2.9-0.2-4-0.7s-2.1-1.2-2.9-2.1c-0.8-0.9-1.3-2-1.7-3.2c-0.4-1.3-0.6-2.7-0.6-4.2c0-2,0.3-3.8,1-5.4
		c0.7-1.5,1.7-2.7,3.1-3.6c1.4-0.9,3.1-1.3,5.1-1.3s3.6,0.4,5,1.3c1.4,0.8,2.4,2,3.1,3.6C297.9,156.7,298.2,158.5,298.2,160.6z
		 M282.3,160.6c0,1.7,0.2,3.1,0.7,4.4c0.5,1.2,1.2,2.2,2.2,2.9s2.3,1,3.8,1s2.8-0.3,3.8-1s1.7-1.6,2.2-2.9c0.5-1.2,0.7-2.7,0.7-4.4
		c0-2.6-0.5-4.6-1.6-6s-2.8-2.2-5-2.2c-1.5,0-2.8,0.3-3.8,1s-1.7,1.6-2.2,2.8C282.6,157.4,282.3,158.9,282.3,160.6z"/>
	<path class="st0" d="M314.6,165.2c0,1.2-0.3,2.2-0.9,3s-1.4,1.5-2.5,1.9s-2.3,0.6-3.7,0.6c-0.8,0-1.5,0-2.1-0.1
		c-0.7-0.1-1.3-0.2-1.9-0.3s-1-0.3-1.5-0.5v-2.2c0.7,0.3,1.5,0.5,2.5,0.8c1,0.2,2,0.4,3.1,0.4c1,0,1.8-0.1,2.5-0.4
		c0.7-0.3,1.2-0.6,1.6-1.1s0.5-1.1,0.5-1.8s-0.1-1.2-0.5-1.7c-0.3-0.5-0.8-0.9-1.5-1.2c-0.7-0.4-1.6-0.8-2.9-1.2
		c-0.8-0.3-1.6-0.6-2.2-1s-1.2-0.8-1.6-1.2c-0.4-0.5-0.8-1-1-1.6s-0.3-1.3-0.3-2.1c0-1.1,0.3-2,0.8-2.7c0.5-0.8,1.3-1.4,2.2-1.7
		c1-0.4,2.1-0.6,3.3-0.6c1.1,0,2,0.1,2.9,0.3s1.7,0.5,2.5,0.8l-0.7,2c-0.7-0.3-1.5-0.6-2.3-0.8s-1.6-0.3-2.5-0.3s-1.6,0.1-2.2,0.4
		c-0.6,0.2-1,0.6-1.3,1.1c-0.3,0.4-0.5,1-0.5,1.6c0,0.7,0.1,1.3,0.5,1.7c0.3,0.5,0.8,0.9,1.4,1.2s1.5,0.7,2.6,1.1
		c1.2,0.4,2.2,0.9,3,1.4s1.4,1.1,1.9,1.7C314.4,163.3,314.6,164.2,314.6,165.2z"/>
	<path class="st0" d="M340.1,170.6l-2.5-6.3h-8l-2.4,6.3h-2.3l7.8-20h2.1l7.7,20H340.1z M337,162.2l-2.3-6.3
		c-0.1-0.2-0.1-0.4-0.3-0.8c-0.1-0.4-0.2-0.8-0.4-1.2c-0.1-0.4-0.2-0.7-0.3-1c-0.1,0.4-0.2,0.7-0.3,1.1c-0.1,0.4-0.2,0.7-0.3,1
		c-0.1,0.3-0.2,0.6-0.3,0.8l-2.4,6.3L337,162.2L337,162.2z"/>
	<path class="st0" d="M346,170.6v-19.9h2.3v19.9H346L346,170.6z"/>
	<path class="st0" d="M359.9,150.6c1.6,0,3,0.2,4.1,0.6s1.9,1,2.4,1.8s0.8,1.9,0.8,3.2c0,1.1-0.2,1.9-0.6,2.6
		c-0.4,0.7-0.9,1.3-1.5,1.7s-1.3,0.8-2,1l5.5,9h-2.7l-4.9-8.3h-4.1v8.3h-2.3v-19.9L359.9,150.6L359.9,150.6z M359.8,152.6h-2.9v7.6
		h3.2c1.6,0,2.8-0.3,3.6-1c0.8-0.7,1.1-1.6,1.1-2.9c0-1.4-0.4-2.3-1.2-2.9C362.8,152.9,361.5,152.6,359.8,152.6z"/>
	<path class="st0" d="M383.6,170.6h-11.1v-19.9h11.1v2.1h-8.8v6.4h8.3v2h-8.3v7.4h8.8V170.6z"/>
	<path class="st0" d="M400,165.2c0,1.2-0.3,2.2-0.9,3s-1.4,1.5-2.5,1.9s-2.3,0.6-3.7,0.6c-0.8,0-1.5,0-2.1-0.1s-1.3-0.2-1.9-0.3
		s-1.1-0.3-1.5-0.5v-2.2c0.7,0.3,1.5,0.5,2.5,0.8c1,0.2,2,0.4,3.1,0.4c1,0,1.8-0.1,2.5-0.4s1.2-0.6,1.6-1.1s0.5-1.1,0.5-1.8
		s-0.1-1.2-0.5-1.7c-0.3-0.5-0.8-0.9-1.5-1.2c-0.7-0.4-1.6-0.8-2.9-1.2c-0.8-0.3-1.6-0.6-2.2-1s-1.2-0.8-1.6-1.2
		c-0.4-0.5-0.8-1-1-1.6s-0.3-1.3-0.3-2.1c0-1.1,0.3-2,0.8-2.7s1.3-1.4,2.2-1.7c1-0.4,2.1-0.6,3.3-0.6c1.1,0,2,0.1,3,0.3
		c0.9,0.2,1.7,0.5,2.5,0.8l-0.7,2c-0.7-0.3-1.5-0.6-2.3-0.8s-1.6-0.3-2.5-0.3s-1.6,0.1-2.2,0.4c-0.6,0.2-1,0.6-1.3,1.1
		c-0.3,0.4-0.5,1-0.5,1.6c0,0.7,0.1,1.3,0.4,1.7c0.3,0.5,0.8,0.9,1.4,1.2c0.6,0.4,1.5,0.7,2.6,1.1c1.2,0.4,2.2,0.9,3,1.4
		s1.4,1.1,1.9,1.7C399.8,163.3,400,164.2,400,165.2z"/>
</g>
<g>
	<path class="st1" d="M130.1,130.1c-0.7,0-1.2,0.4-1.5,0.9c-0.9-0.9-3.2-1.6-6-1.6l-6.9-0.1c0-0.3-0.3-0.6-0.6-0.6
		c-0.3,0-0.6,0.2-0.6,0.6l0.1,2.6l-0.1,2.6c0,0.3,0.3,0.5,0.6,0.5c0.3,0,0.6-0.3,0.6-0.6l6.9-0.1c2.8,0,5.1-0.7,6-1.6
		c0.3,0.5,0.9,0.9,1.5,0.9c1,0,1.7-0.8,1.7-1.7C131.9,130.8,131.1,130.1,130.1,130.1"/>
	<polygon class="st2" points="57.6,131.8 109.1,131 109.2,129 43.9,129.8 38.2,131.8 43.9,133.8 109.2,134.6 109.1,132.6 	"/>
	<path class="st1" d="M111.8,142.5c-0.9,0-1.6-0.7-1.6-1.6c0-0.6,0.3-1,0.7-1.3l-0.3-7.7l0.3-7.7c-0.4-0.3-0.7-0.8-0.7-1.3
		c0-0.9,0.7-1.6,1.6-1.6c0.9,0,1.7,0.7,1.7,1.6c0,0.5-0.3,1-0.7,1.3l0.4,7.7l-0.4,7.7c0.4,0.3,0.7,0.8,0.7,1.3
		C113.5,141.7,112.8,142.5,111.8,142.5"/>
	<path class="st3" d="M121.9,49.9c0.5-0.4,0.9-1,0.9-1.8c0-1.3-1-2.3-2.3-2.3H94.9c-1.4-0.5-2.4-2.1-2.4-3.6v-1.7h-2.8
		c0-0.1,0-0.8,0-0.9c0-2.6-1.6-4.2-3.6-4.6l-0.4-1.3c0-0.1,0-0.1,0.1-0.2l1.8-2.3c0.1-0.1,0.1-0.2,0.1-0.2l-2.1-4.8
		c-0.1-0.1-0.3-0.1-0.3,0l-2.2,4.8c0,0.1,0,0.2,0,0.2l1.6,2.3c0,0,0.1,0.1,0.1,0.1l-0.4,1.3c-2,0.4-3.5,2.1-3.5,4.6
		c0,0.1,0,0.8,0,0.9h-2.6v1.7c0,1.6-1.1,3.2-2.6,3.7H49.9c-1.3-0.1-2.3,1-2.3,2.3c0,0.7,0.4,1.4,0.9,1.8l-9.1,50.8l0,0.5
		c0.1,2.7,1.9,4.6,5.2,5.7c3.3,1,7.7,1.1,10.6,0c3-1.1,5.1-3.2,5.2-5.9l0-0.2L51.2,50c0.4-0.3,0.8-0.8,0.9-1.3h29.5
		C81.6,50,80.5,51,79.2,51h-1.1v0.6V53h3.1c0.7,0,1.3,0.6,1.3,1.3l-0.4,12.9h6.5l-0.4-12.9c0-0.7,0.6-1.3,1.3-1.3h3v-1.3V51h-1.1
		c-1.3,0-2.4-1-2.4-2.3h29.5c0.1,0.6,0.5,1,0.9,1.3l-9.1,50.7l0,0.5c0.1,2.7,1.9,4.6,5.2,5.7c3.3,1,7.7,1.1,10.6,0
		c3-1.1,5.1-3.2,5.2-5.9l0-0.2L121.9,49.9z M41.1,100.3L41.1,100.3h-0.2l0-0.3L49.2,54l0.1,46.4H41.1z M59,100.3L59,100.3l-8.4,0
		L50.6,54L59,100.3z M111.6,100.3L111.6,100.3L120,54l0,46.4H111.6z M121.4,100.3L121.4,100.3L121.3,54l8.4,46.3H121.4z"/>
	<path class="st4" d="M106.6,113.3H63.2V70c0-2,0.8-3.9,2.2-5.4c1.4-1.4,3.3-2.2,5.2-2.2c3.9,0,6.9,2.8,7.4,6.7h13.9
		c0.4-3.8,3.5-6.7,7.4-6.7c4.1,0,7.4,3.3,7.4,7.4c0,7.1,0,14.2,0,21.3c0,7.1,0,14.2,0,21.3V113.3z M64.8,111.7H105
		c0-6.8,0-13.7,0-20.5c0-7.1,0-14.2,0-21.3c0-3.2-2.6-5.8-5.8-5.8c-3.2,0-5.8,2.6-5.8,5.9v0.8h-17l0-0.8c-0.1-3.5-2.5-6-5.9-6
		c-1.5,0-3,0.6-4.1,1.7c-1.1,1.1-1.7,2.6-1.7,4.2V111.7z"/>
	<polygon class="st3" points="44.3,136.2 43.1,136.2 41,138.7 40.6,140.3 42.3,140 45.4,136.2 	"/>
	<path class="st3" d="M126.8,136.1c-0.6,0.2-1.3,0.3-2,0.4l2.9,3.5l1.7,0.3l-0.4-1.6L126.8,136.1z"/>
	<path class="st3" d="M80,33.7L76.6,7.1c0-0.3-1.5-1.5-1.5-1.5s-1,1.5-1,1.8l4.2,28.1C78.8,34.8,79.3,34.2,80,33.7"/>
	<path class="st3" d="M72.5,60.4c0.6,0.1,1.2,0.3,1.7,0.5l-2.4-9.2H70L72.5,60.4z"/>
	<path class="st3" d="M67.5,42.9h1.9l-7.1-26.7c-0.1-0.3-1.8-1.5-1.8-1.5s-0.5,2-0.4,2.3L67.5,42.9z"/>
	<path class="st3" d="M63.9,62.9c0.4-0.3,0.7-0.7,1.1-0.9L60,51.7h-1.9L63.9,62.9z"/>
	<polygon class="st3" points="53.4,42.9 55.6,42.9 50,31.6 48,30.7 48.2,32.9 	"/>
	<path class="st3" d="M61,68.3v-0.7c0-0.3,0-0.6,0-0.9l-4.6-3.9l0.4,2.1L61,68.3z"/>
	<polygon class="st3" points="44,55.2 44.4,53.2 39.9,49.5 38.2,49.4 38.8,51 	"/>
	<polygon class="st3" points="61,76.1 61,74.8 58.4,73.7 58.6,75.2 	"/>
	<polygon class="st3" points="41.9,67.1 36.1,64.7 34.5,65.2 35.6,66.5 41.6,68.8 	"/>
	<polygon class="st3" points="61,109.5 36.6,125.2 35.8,126.7 37.5,126.8 61,111 	"/>
	<polygon class="st3" points="133.2,125.2 108.8,109.5 108.8,111 132.3,126.8 134,126.7 	"/>
	<path class="st3" d="M135.3,111.2l-4.9-1.9c-0.4,0.5-0.9,0.9-1.3,1.3l5.7,2.4l1.6-0.5L135.3,111.2z"/>
	<path class="st3" d="M136.5,100l-2.9-0.6l0.1,0.7l0.1,0.2v0.2c0,0.2,0,0.5,0,0.7l2.5,0.6l1.5-0.8L136.5,100z"/>
	<polygon class="st3" points="136,88.1 131.7,88.2 132,89.9 136.2,90 137.5,88.9 	"/>
	<polygon class="st3" points="135.2,75.8 129.6,77.1 129.9,78.7 135.3,77.7 136.6,76.6 	"/>
	<path class="st3" d="M108.6,75c0,0.4,0,0.9,0,1.3l2.9-1.1l0.3-1.5L108.6,75z"/>
	<polygon class="st3" points="133.7,64.7 127.5,67.2 127.8,68.9 134.2,66.5 135.3,65.2 	"/>
	<polygon class="st3" points="125.5,55.3 130.9,51 131.6,49.4 129.9,49.5 125.2,53.4 	"/>
	<path class="st3" d="M108.5,67.4c0.1,0.4,0.2,0.9,0.3,1.4l4.8-3.8l0.4-2.1L108.5,67.4z"/>
	<path class="st3" d="M110.9,51.7l-5.4,10.8c0.4,0.3,0.7,0.7,1,1l6.2-11.9H110.9z"/>
	<polygon class="st3" points="117.5,42.8 122.7,32.9 122.9,30.7 120.8,31.6 115.3,42.8 	"/>
	<path class="st3" d="M99.1,51.7l-2.4,8.8c0.5-0.2,1.1-0.2,1.7-0.3l2.5-8.5H99.1z"/>
	<path class="st3" d="M103.4,42.8l7.4-25.8c0.1-0.3-0.4-2.3-0.4-2.3s-1.7,1.2-1.8,1.5l-7.1,26.7H103.4z"/>
	<path class="st3" d="M92.4,36.1l4.3-28.7c0-0.3-1-1.8-1-1.8s-1.5,1.2-1.5,1.5l-3.4,26.8C91.5,34.5,92,35.3,92.4,36.1"/>
	<polygon class="st3" points="52.8,127.3 62.7,115.4 61.2,115.4 50.9,127.3 	"/>
	<polygon class="st3" points="62.6,127.1 68.4,115.4 67,115.4 60.9,127.1 	"/>
	<polygon class="st3" points="56,136.4 47.7,152.2 47.5,154.4 49.6,153.5 58,136.4 	"/>
	<polygon class="st3" points="73,127 76.1,115.4 74.7,115.4 71.4,127 	"/>
	<path class="st3" d="M68.6,136.6l-8.9,31c-0.1,0.3,0.4,2.3,0.4,2.3s1.7-1.2,1.8-1.4l8.5-31.8L68.6,136.6z"/>
	<polygon class="st3" points="82.6,126.9 84.1,115.4 83,115.4 81.2,126.9 	"/>
	<path class="st3" d="M79.8,136.8l-5.2,33.9c0,0.3,1,1.8,1,1.8s1.5-1.2,1.5-1.4l4.3-34.2L79.8,136.8z"/>
	<polygon class="st3" points="88.7,126.8 87,115.4 85.8,115.4 87.3,126.8 	"/>
	<path class="st3" d="M88.6,136.9l4.2,34.1c0,0.3,1.5,1.4,1.5,1.4s1-1.5,1-1.8l-5-33.7L88.6,136.9z"/>
	<polygon class="st3" points="98.4,126.6 95.2,115.4 93.8,115.4 96.8,126.7 	"/>
	<path class="st3" d="M99.6,137l8.4,31.4c0.1,0.3,1.8,1.4,1.8,1.4s0.5-2,0.4-2.3l-8.8-30.6L99.6,137z"/>
	<path class="st3" d="M114.7,142l5.7,11.4l2,0.9l-0.2-2.2l-7.8-15.4l-0.1,2.2c0.4,0.5,0.6,1.2,0.6,1.9
		C114.9,141.3,114.9,141.7,114.7,142"/>
	<polygon class="st3" points="108.7,126.5 102.9,115.4 101.5,115.4 107,126.5 	"/>
	<path class="st3" d="M112.4,119.7l-3.8-4.4h-1.5l3.7,4.5c0.3-0.1,0.6-0.1,0.9-0.1C112.1,119.7,112.3,119.7,112.4,119.7"/>
	<polygon class="st3" points="39.8,76.8 34.6,75.8 33.1,76.4 34.4,77.3 39.5,78.1 	"/>
	<polygon class="st3" points="38,88.2 33.8,88.1 32.3,88.9 33.6,90 37.7,89.9 	"/>
	<path class="st3" d="M36.4,99.5l-3.2,0.6l-1.3,1.1l1.5,0.8l3.2-0.7C36.6,100.7,36.5,100.1,36.4,99.5"/>
	<path class="st3" d="M40,109.3l-5.6,2.2l-1.1,1.3l1.6,0.5l6.6-2.7C41.1,110.2,40.5,109.8,40,109.3"/>
	<path class="st5" d="M87,186.8c7.3,5.2,20.6,5.8,41.5,6.3c0.6,0,0.6,0.5-0.3,0.7c-6.1,1.3-11.6,2.7-19.8,2.7c-1.3,0-1.3,0.4-1,1.3
		l1.3,2.8c-13.3-1.9-19.8-4.4-23.5-11c-3.7,6.5-10.3,9-23.5,11l1.3-2.8c0.4-0.8,0.4-1.3-1-1.3c-8.2,0-13.7-1.4-19.8-2.7
		c-1-0.2-0.9-0.7-0.3-0.7c21-0.5,34.3-1.1,41.6-6.3h0c-4.1,0.4-15,2.6-18.2-4.9c3.1-1.4,5.5-1.6,6.2-1.6c2.6,2.5,7,3.3,11.5,5.2
		c-6-6.7-11.9-6.8-17.8-4.1c0.3-2.6,2.1-6.7,4-7.7c5.2-1,8.5,1,13.7,7.5c1.3-0.3,3.9-0.3,5.2,0c5.2-6.5,8.5-8.5,13.7-7.5
		c1.9,1,3.6,5,4,7.7c-5.9-2.7-11.8-2.6-17.8,4c4.4-1.9,8.7-2.7,11.3-5.1c0.7,0,3,0.1,6.2,1.6c-2.9,6.7-11.9,5.6-16.7,5.1
		C88.1,186.9,87.6,186.8,87,186.8"/>
	<path class="st6" d="M67.6,175.5c0,0,1.8-1.3,6.2-0.2c4.4,1.1,8.8,6.9,8.8,6.9l0.1,1.7c0,0-4.4-5.4-8.7-6.3c-4.9-1.1-8,1.3-8,1.3
		C66.3,177.8,66.8,176.7,67.6,175.5"/>
	<path class="st6" d="M103.2,175.4c0,0-1.8-1.1-6.2-0.1c-4.4,1.1-8.8,6.9-8.8,6.9l-0.1,1.7c0,0,4.4-5.4,8.7-6.3c4.9-1.1,8,1.2,8,1.2
		C104.5,177.6,104,176.5,103.2,175.4"/>
	<path class="st6" d="M51,195.1c15.4,0,26.7-2,33.5-7.3c0.1,0.2,0.2,0.6,0.3,0.8c-4.7,5.8-11.5,7.2-21.4,9.3
		c0.6-1.1,0.2-1.6-0.2-1.6C62.4,196,56.2,196.3,51,195.1"/>
	<path class="st6" d="M119.4,195.1c-15.4,0-26.7-2-33.5-7.3c-0.1,0.2-0.2,0.6-0.3,0.8c4.7,5.8,11.5,7.2,21.4,9.3
		c-0.6-1.1-0.2-1.6,0.2-1.6C108,196,114.2,196.3,119.4,195.1"/>
	<path class="st3" d="M88.3,89.7h0.4c0.7,0,1.1-0.4,1.1-1c0-0.6-0.4-0.9-1-0.9c-0.3,0-0.4,0-0.6,0.1V89.7z M88.8,91h-0.4v2.2
		c0.1,0,0.3,0,0.5,0c0.6,0,1.2-0.3,1.2-1.1C90,91.3,89.4,91,88.8,91 M79,99.9L79,99.9c-0.1,0.5-0.2,1.2-0.3,1.7l-0.3,1.6h1.3
		l-0.3-1.6C79.2,101.1,79.1,100.4,79,99.9 M101.2,94.6L101.2,94.6c-0.8,0-1.5-0.2-1.9-0.4l0.3-1.5c0.4,0.2,1,0.4,1.6,0.4
		c0.7,0,1.1-0.3,1.1-0.8c0-0.5-0.3-0.7-1.1-1.1c-1.2-0.6-1.8-1.3-1.8-2.3c0-1.4,1-2.4,2.7-2.4c0.7,0,1.3,0.2,1.6,0.3l-0.3,1.5
		c-0.3-0.1-0.7-0.3-1.3-0.3c-0.7,0-1,0.3-1,0.7c0,0.4,0.3,0.7,1.2,1.1c1.2,0.6,1.7,1.3,1.7,2.3C104.1,93.6,103.1,94.6,101.2,94.6
		 M96.5,106.5L96.5,106.5c-0.8,0-1.5-0.2-1.9-0.4l0.3-1.5c0.4,0.2,1,0.4,1.6,0.4c0.7,0,1.1-0.3,1.1-0.8c0-0.5-0.3-0.8-1.1-1.1
		c-1.2-0.6-1.8-1.4-1.8-2.3c0-1.3,1-2.4,2.7-2.4c0.7,0,1.3,0.2,1.6,0.3l-0.3,1.5c-0.3-0.2-0.7-0.3-1.3-0.3c-0.7,0-1,0.3-1,0.7
		c0,0.4,0.3,0.7,1.2,1.1c1.2,0.6,1.7,1.4,1.7,2.3C99.3,105.4,98.3,106.5,96.5,106.5 M93.6,103L93.6,103c0,2.3-1,3.5-2.8,3.5
		c-1.8,0-2.7-1.2-2.7-3.5v-4.6h1.7v4.8c0,1.2,0.4,1.8,1,1.8c0.7,0,1-0.5,1-1.8v-4.8h1.7V103z M87.2,106.4L87.2,106.4H83v-8h1.7v6.4
		h2.5V106.4z M82.4,82.6L82.4,82.6h-1.7v-8h1.7V82.6z M82.3,94.2L82.3,94.2c-0.5,0.2-1.3,0.4-2.1,0.4c-1.2,0-2-0.3-2.6-0.9
		c-0.7-0.7-1-1.8-1-3c0-2.7,1.8-4.1,3.9-4.1c0.8,0,1.4,0.2,1.7,0.3l-0.3,1.5c-0.3-0.2-0.7-0.3-1.4-0.3c-1.2,0-2.1,0.8-2.1,2.6
		c0,1.7,0.8,2.5,1.9,2.5c0.2,0,0.4,0,0.5-0.1v-1.7h-0.9v-1.4h2.5V94.2z M80.3,106.4L80.3,106.4l-0.4-1.9h-1.7l-0.4,1.9H76l2-8h2.2
		l1.9,8H80.3z M75.8,94.5L75.8,94.5h-4.3v-7.9h4.1V88h-2.4v1.6h2.3v1.5h-2.3V93h2.6V94.5z M72.7,106.5L72.7,106.5
		c-0.8,0-1.5-0.2-1.9-0.4l0.3-1.5c0.4,0.2,1,0.4,1.6,0.4c0.7,0,1.1-0.3,1.1-0.8c0-0.5-0.3-0.8-1.1-1.1c-1.2-0.6-1.8-1.4-1.8-2.3
		c0-1.3,1-2.4,2.7-2.4c0.7,0,1.3,0.2,1.6,0.3l-0.3,1.5c-0.3-0.2-0.7-0.3-1.3-0.3c-0.7,0-1,0.3-1,0.7c0,0.4,0.3,0.7,1.2,1.1
		c1.2,0.6,1.7,1.4,1.7,2.3C75.6,105.4,74.5,106.5,72.7,106.5 M70.6,94.5L70.6,94.5h-4.2v-7.9h1.7V93h2.5V94.5z M83.5,86.5L83.5,86.5
		h1.7v7.9h-1.7V86.5z M83.8,74.7L83.8,74.7h1.8l1.3,2.9c0.3,0.7,0.7,1.7,1,2.5h0c-0.1-0.9-0.1-2.2-0.1-3.5v-1.9h1.5v8h-1.7l-1.3-2.9
		c-0.4-0.8-0.8-1.8-1.1-2.6h0c0.1,0.9,0.1,2.1,0.1,3.6v2h-1.5V74.7z M91.6,88.5L91.6,88.5c0,0.7-0.3,1.4-1.2,1.7v0
		c0.9,0.2,1.4,1,1.4,1.9c0,0.6-0.2,1.2-0.7,1.6c-0.5,0.5-1.4,0.8-2.8,0.8c-0.7,0-1.3-0.1-1.7-0.1v-7.8c0.5-0.1,1.2-0.2,2-0.2
		c0.9,0,1.6,0.1,2.1,0.5C91.3,87.3,91.6,87.8,91.6,88.5 M92.9,86.5L92.9,86.5h1.7v4.8c0,1.2,0.4,1.8,1,1.8c0.7,0,1-0.5,1-1.8v-4.8
		h1.7v4.6c0,2.3-1,3.5-2.8,3.5c-1.8,0-2.7-1.2-2.7-3.5V86.5z"/>
	<path class="st7" d="M19.2,115.3c0.7-1.2,1.6-2.6,3-4.7c0,0,0.1-0.6,0.3-1.4c-0.4,0.5-0.9,1.6-1.9,1.6
		C19.8,111.4,19.5,112.9,19.2,115.3 M12.4,145.6L12.4,145.6c0.3-0.6,3-2.9,6.2,0.3c0,0,3.4,3.7,2.7,6.1c2.2,1,3.2,1.4,4.8,2.9
		c1.5,1.4,4.1,2.8,5.4,3.4c-0.9-1.5-4.3-7.1-5.1-8.7c-0.9-1.9-3.7-6-4.6-7.1c-0.9-1-6.3-5.1-8.1-6.9c-1.8-1.8-7.9-6-7.3-16.5
		c0,0,1-0.1,6,4.7c2.1,2,2.6,3.2,5.6,8.1c-0.5-1.4-1-1.3-2.5-4.9c-0.9-2.1-1.4-4.6-1.6-7c-1.4-2.1-2.1-3.4-3.3-3.6
		c-3.3,0.2-8.7-2.7-6.9-5.5c2.1-2.5,5.4,0.3,6.6,2c0.8,1.2,1.2,2.8,1.2,2.8c1,1.2,1.8,2.1,2.4,2.9c-0.2-3.5,0.2-6.4,0.9-7
		c0.1-0.1,0.4-1.4-0.1-2c-2-2.2-5.3-3.9-6-4.4c-0.9-0.7-6-5.8-7.3-10c-1.3-4.2-1.8-7.7-0.6-8.6c1.2-0.8,3.3,3.2,4.8,7.8
		c1.4,4.3,3.6,8.3,6.7,11.9c-6.1-7.7-5.9-20.9-5.9-20.9c-0.1-2,1.6-2.6,3.1,1.5c1,2.9,1.8,3.2,2.9,10c0.7,4.1,1.1,6.6,1.9,9.2
		c-0.2-3.6-0.2-8.9-0.3-12.9c-0.5-2.1-1.2-4.6-1.5-5.4c-0.7-1.5-0.9-1.9-1.7-3.2c-0.6-0.9-2.2-1.5-3.4-1.5c-1.2,0.7-2.9,0.6-2.9,0.6
		c-2.4-0.1-4.2-1.8-4.5-2.9c-0.3-1.2,0.6-2.3,2.2-2.3c2.8,0,5.2,2.3,5.5,3.9c1.2,0.3,2.2,0.6,2.8,1c-0.3-0.4-0.9-2.5-1.8-3.6
		c-2-0.2-3.4-1.7-4.6-2.8c-1.2-1.1-2.1-3.9-0.8-5.2c0,0,1.4-1.2,3.3,0c2,1.2,4.2,5.3,3,7.6c0.5,1.4,1.1,2.3,1.3,3
		c0.6,1.5,0.8,1.7,1.5,3.6c0.5,1.4,1.2,3,1.6,3.9c0-0.5,0-1,0-1.2c0,0-0.1-13.6-2.5-18.5c-2.3-5-4.4-7.2-5.2-14.4
		c-0.9-8.4,0.4-11,0.9-11.9c1.9-3.1,5.2,6.3,5.7,11.6c0.5,5.3,0.1,4.7,0.9,9.5c0.5,2.9,0.1-5.2,0.1-8.1c0-3.7,0.8-6.5,1.9-9.2
		c1.3-3.2,5.5-8.1,5.2-3.1c-0.1,1.2-1.4,9-2.9,15.9c1.2-4.4,5.1-10.1,4.8-17.8c-0.1-3.3-0.6-12.9-0.8-13.8c-0.2-1-0.6-9.2,3.7-13.5
		c3.3-3.3,1.2,16.3,0.1,23.7c1-5,2.9-16.2,8-20.8c-0.2-0.5-0.7-2.8-1.9-3.3c-1.5,0-3.1-1.1-3.5-2.3c-0.3-1.1,0-1.9,0.7-2.2
		c0.8-0.3,1.6,0,2.1,0.6c0.5,0.6,1.4,2.2,1.2,3.4c0.7,1,1.1,1.8,1.5,3.4c0.5-1.4,0.9-2.8,0.5-3.7c-1.5-0.6-3-3.7-2.3-5
		c0.9-1.3,2.1-0.8,2.5-0.6c0.9,0.5,1.2,1.8,1.2,2.9c0,0.5,0,1.5-0.6,2.5c-0.3,1.4-0.5,2.9-1.1,3.9c0,0,2.2-1.8,2.1,0.1
		c-0.3,3.8-3.2,9.4-4.9,12.1c-0.9,1.3-0.7,1.1-1.5,2.7c1.9-3,2.6-3.6,4.3-6.7c1.9-3.4,4.7-11.4,5.7-13.4c1-2,2.7-9.3,11.3-12.3
		c0.2-0.1,0.6-0.1,0.6,0.2c0,0.6-0.3,2.2-2.5,6.2c-0.8,1.5-6.1,7.5-7.6,9.7C44.6,13,53.1,4.4,58.2,2.4c0,0,4.2-2,9-0.6
		c2.9,0.8-2.5,5-4.9,5.5c-10.7,2.4-16.2,6.2-21.3,12.6c3.4-2.3,10.3-8.8,16.2-7.5c0,0,1.1,0.5-0.1,1.5c-1.7,1.4-3.5,3.1-6.3,4.6
		c-2.6,1.4-4.9,2-7.7,3c0,0-1.6,0.7-3.5,2c-2.4,1.6-4.6,3.8-4.6,3.8c-0.7,1-0.8,1-1.5,2c1.3-1.3,3.4-2.3,6.9-4.2
		c0.9-2.6,4.6-3,6.2-2.9c2.3,0.1,2.3,1.3,2.4,1.8c0,0.8-0.4,1.4-1.5,1.9c-2.5,1.2-5.3,1.5-6.7,0.1c-1.8,0.2-8.5,4.5-12.1,10.3
		c-1.4,2.3-1.8,3.8-1.8,3.8c1.1-1.8,6.1-8.9,11.4-11.9c0,0,3.9-1.9,2.4,1.2c-1.5,3.1-3.1,5.6-5.4,7.7c-4.9,4.4-7.5,0.8-14,18.2
		c-2.1,5.6-2.7,9.3-2.7,9.3c3.1-7.2,1.7-4.7,3.4-7.7c2.1-3.6,5.3-8.1,6.5-9.1c1.2-1,1.1,2.7,1.1,3.7c0,1-0.4,8.5-5.3,12.6
		c-9.7,8.1-8.1,15.9-8,18.5c0,0,0.4,0.5,1.4-2.1c0.8-2.1,1.1-2.4,1.8-4.1c0.3-0.7,0.9-1.7,1.3-2.4c-0.4-1.3,0-2.6,0-2.6
		c2-6,5.6-5.1,6.2-4.6c1.5,1.3,0.2,4.4-1.2,5.6c-1.4,1.2-2.1,2-4.1,2.1c-1.6,1.1-1.9,3.1-2.2,3.6c1.3-0.7,2.6-1.2,3.6-1.6
		c0.2-1,1.6-2.7,3.6-3.6c1.4-0.6,4.5-0.6,4.2,1.5c-0.4,1.4-1.9,2.9-4.6,3.2c0,0-2,0-3-0.3c-1.4,0.3-2.9,0.8-3.8,2
		c-0.9,1.5-1.2,1.9-2,3.7c-0.7,1.4-1.2,2.6-1.4,4.4c-0.2,1.8-0.3,10.3-0.3,10.3c0.3-8.7,4-15.1,9.8-18.8c0,0,1.2-0.5,0.1,2.8
		c-1.1,3.3-0.6,2.6-3.1,7.1c-2.5,4.5-5,4.9-6.5,15.3l0,0.9c0.4-4.2,2.4-10.4,9.1-17.1c0.8-0.8,1.5-0.7,1.8-0.5
		c0.7,0.5-0.7,4.8-2.3,7.7c-1.6,2.9-3.4,5.6-5.7,8.1c-3.2,3.5-2.4,9-2.4,9h0c0.6,0.7,1.2,1.9,1.9,3.5c0.2-1.2,0.6-2.7,1.2-5.1
		c0,0-0.3-1.3,0-2.5c0.2-1.2,0.6-2.4,2.3-4.2c1.4-1,2.1-0.7,2.4-0.4c0.5,0.4,0.7,0.8,0.5,1.8c0,0.1-0.1,0.3-0.1,0.4
		c0.6-0.5,1.5-1.1,2.6-1.6c2.1-1,3-0.3,3.2,0.1c0.4,0.7,0.2,1.7-0.4,2.8c-1.2,2.2-4.1,4.2-6.9,4.1c-1.5,0.4-2.7,3-4.2,6.3
		c1.1,3.1,2.2,7.3,3,12.9c-1.8-15.3,4.2-18.6,4.2-18.6c0.4-0.1,1,2.3,1.1,4.5c0.4,5.4-0.5,14.6-0.5,14.6c1.4-5.5,0.7-6.7,1.6-12
		c0.5-3,2-5.4,2.5-4.4c4.9,10.1-1.2,15.8-3.3,21.7c-2,5.5-0.5,11.4,1.4,15.7c-4.1-12.6,1.6-17.7,1.6-17.7s0.8,0.5,1.4,3.5
		c1.6,7.7-4.5,8.7,3.1,22.7c0.2,0.4,0.5,0.9,0.7,1.3c-8.4-17.8-0.5-26.1-0.5-26.1c5.3,7.4,3.5,18.1,2.6,22.7
		c-0.7,3.5,5.4,12.9,6.1,13.5c-8.4-12.5-0.4-24.6-0.4-24.6c1.8-0.2,3.6,6.3,3.3,14.9c-0.6,16.4,12.3,19.2,13.6,20.5
		c1.1,0.6,2.1,1.1,3.1,1.6c0.2,0.5,0.6,1,0.9,1.5c0.4,0.7,0.9,1.3,1.4,1.8c-1.9-0.8-3.7-1.6-5.5-2.6c-3-1.6-4.2-2.2-6-3.3
		c0,0-13.4-6.2-18.8-4.1c-5.4,2.1-12.1,3.3-18-1.6c0,0,7.7-7.6,26.6-0.5c-6.2-6.4-27.2-1.9-31.2-14.8c0,0,6.9-3.8,23.8,6.4
		c-0.6-0.9-1.2-1.8-1.8-2.7l-1-1.3c-0.2-0.3-0.5-0.7-1-1.1c-1.7-1.7-5-3.9-5.9-4.7c-1.6-1.2-5.7-2.3-7.8-2.2
		c-0.6,1.3-1.5,2.2-3.1,2.7c-3.2,0.7-5.5,0-5.7-1.8c-0.5-4.1,6.5-3.3,8.6-1.8c0.5,0,3.2,0.3,5.5,1c-2.3-1.7-4.3-2.1-4.1-2
		C17,153,10.3,150.3,12.4,145.6"/>
	<path class="st8" d="M21.4,152c2.2,1,3.2,1.4,4.8,2.9c1.5,1.4,4.1,2.8,5.4,3.4c-0.9-1.5-4.3-7.1-5.1-8.7c-0.9-1.9-3.7-6-4.6-7.1
		c-0.9-1-6.3-5.1-8.1-6.9c-1.8-1.8-7.9-6-7.3-16.5c0,0,1-0.1,6,4.7c2.1,2,2.6,3.2,5.6,8.1c-0.5-1.4-1-1.3-2.5-4.9
		c-0.9-2.1-1.4-4.6-1.6-7c-1.4-2.1-2.1-3.4-3.3-3.6c-3.3,0.2,0.8-0.7,0.8-0.7c1,1.2,1.8,2.1,2.4,2.9c-0.2-3.5,0.2-6.4,0.9-7
		c0.1-0.1,0.4-1.4-0.1-2c-2-2.2-5.3-3.9-6-4.4c-0.9-0.7-6-5.8-7.3-10c-1.3-4.2-1.8-7.7-0.6-8.6c1.2-0.8,3.3,3.2,4.8,7.8
		c1.4,4.3,3.6,8.3,6.7,11.9c-6.1-7.7-5.9-20.9-5.9-20.9c-0.1-2,1.6-2.6,3.1,1.5c1,2.9,1.8,3.2,2.9,10c0.7,4.1,1.1,6.6,1.9,9.2
		c-0.2-3.6-0.2-8.9-0.3-12.9c-0.5-2.1-1.2-4.6-1.5-5.4c-0.7-1.5-0.9-1.9-1.7-3.2c-0.6-0.9-2.2-1.5-3.4-1.5c-1.2,0.7-0.1-2.3,0.2-0.7
		c1.2,0.3,2.2,0.6,2.8,1c-0.3-0.4-0.9-2.5-1.8-3.6c-2-0.2,2.2-2.7,0.9-0.5c0.5,1.4,1.1,2.3,1.3,3c0.6,1.5,0.8,1.7,1.5,3.6
		c0.5,1.4,1.2,3,1.6,3.9c0-0.5,0-1,0-1.2c0,0-0.1-13.6-2.5-18.5c-2.3-5-4.4-7.2-5.2-14.4c-0.9-8.4,0.4-11,0.9-11.9
		c1.9-3.1,5.2,6.3,5.7,11.6c0.5,5.3,0.1,4.7,0.9,9.5c0.5,2.9,0.1-5.2,0.1-8.1c0-3.7,0.8-6.5,1.9-9.2c1.3-3.2,5.5-8.1,5.2-3.1
		c-0.1,1.2-1.4,9-2.9,15.9c1.2-4.4,5.1-10.1,4.8-17.8c-0.1-3.3-0.6-12.9-0.8-13.8c-0.2-1-0.6-9.2,3.7-13.5
		c3.3-3.3,1.2,16.3,0.1,23.7c1-5,2.9-16.2,8-20.8c-0.2-0.5-0.7-2.8-1.9-3.3c-1.5,0,0.8-1.7,0.5-0.5c0.7,1,1.1,1.8,1.5,3.4
		c0.5-1.4,0.9-2.8,0.5-3.7c-1.5-0.6,1.5-1.2,0.8-0.2c-0.3,1.4-0.5,2.9-1.1,3.9c0,0,2.2-1.8,2.1,0.1c-0.3,3.8-3.2,9.4-4.9,12.1
		c-0.9,1.3-0.7,1.1-1.5,2.7c1.9-3,2.6-3.6,4.3-6.7c1.9-3.4,4.7-11.4,5.7-13.4c1-2,2.7-9.3,11.3-12.3c0.2-0.1,0.6-0.1,0.6,0.2
		c0,0.6-0.3,2.2-2.5,6.2c-0.8,1.5-6.1,7.5-7.6,9.7C44.6,13,53.1,4.4,58.2,2.4c0,0,4.2-2,9-0.6c2.9,0.8-2.5,5-4.9,5.5
		c-10.7,2.4-16.2,6.2-21.3,12.6c3.4-2.3,10.3-8.8,16.2-7.5c0,0,1.1,0.5-0.1,1.5c-1.7,1.4-3.5,3.1-6.3,4.6c-2.6,1.4-4.9,2-7.7,3
		c0,0-1.6,0.7-3.5,2c-2.4,1.6-4.6,3.8-4.6,3.8c-0.7,1-0.8,1-1.5,2c1.3-1.3,3.4-2.3,6.9-4.2c0.9-2.6,1.7,2.2,0.3,0.8
		c-1.8,0.2-8.5,4.5-12.1,10.3c-1.4,2.3-1.8,3.8-1.8,3.8c1.1-1.8,6.1-8.9,11.4-11.9c0,0,3.9-1.9,2.4,1.2c-1.5,3.1-3.1,5.6-5.4,7.7
		c-4.9,4.4-7.5,0.8-14,18.2c-2.1,5.6-2.7,9.3-2.7,9.3c3.1-7.2,1.7-4.7,3.4-7.7c2.1-3.6,5.3-8.1,6.5-9.1c1.2-1,1.1,2.7,1.1,3.7
		c0,1-0.4,8.5-5.3,12.6c-9.7,8.1-8.1,15.9-8,18.5c0,0,0.4,0.5,1.4-2.1c0.8-2.1,1.1-2.4,1.8-4.1c0.3-0.7,0.9-1.7,1.3-2.4
		c-0.4-1.3,3,0.4,0.9,0.4c-1.6,1.1-1.9,3.1-2.2,3.6c1.3-0.7,2.6-1.2,3.6-1.6c0.2-1,1.1,1,0.2,0.7c-1.4,0.3-2.9,0.8-3.8,2
		c-0.9,1.5-1.2,1.9-2,3.7c-0.7,1.4-1.2,2.6-1.4,4.4c-0.2,1.8-0.3,10.3-0.3,10.3c0.3-8.7,4-15.1,9.8-18.8c0,0,1.2-0.5,0.1,2.8
		c-1.1,3.3-0.6,2.6-3.1,7.1c-2.5,4.5-5,4.9-6.5,15.3l0,0.9c0.4-4.2,2.4-10.4,9.1-17.1c0.8-0.8,1.5-0.7,1.8-0.5
		c0.7,0.5-0.7,4.8-2.3,7.7c-1.6,2.9-3.4,5.6-5.7,8.1c-3.2,3.5-2.4,9-2.4,9h0c0.6,0.7,1.2,1.9,1.9,3.5c0-0.4,0.8-3.9,1.2-5.1
		c0.1-0.2,0.4-0.2,0.5-0.2c0,0,0.6,0.3,0.4,0.5c-1.2,1.1-1.2,3.4-1.5,4.5c0,0.1,0.8-1.7,3.1-4.7c0.2-0.3,0.8-0.2,0.8-0.1
		c0,0.1,0.4,0.4,0.2,0.5c-2,1-3,3.9-4.1,6.3c1.1,3.1,2.2,7.3,3,12.9c-1.8-15.3,4.2-18.6,4.2-18.6c0.4-0.1,1,2.3,1.1,4.5
		c0.4,5.4-0.5,14.6-0.5,14.6c1.4-5.5,0.7-6.7,1.6-12c0.5-3,2-5.4,2.5-4.4c4.9,10.1-1.2,15.8-3.3,21.7c-2,5.5-0.5,11.4,1.4,15.7
		c-4.1-12.6,1.6-17.7,1.6-17.7s0.8,0.5,1.4,3.5c1.6,7.7-4.5,8.7,3.1,22.7c0.2,0.4,0.5,0.9,0.7,1.3c-8.4-17.8-0.5-26.1-0.5-26.1
		c5.3,7.4,3.5,18.1,2.6,22.7c-0.7,3.5,5.4,12.9,6.1,13.5c-8.4-12.5-0.4-24.6-0.4-24.6c1.8-0.2,3.6,6.3,3.3,14.9
		c-0.6,16.4,12.3,19.2,13.6,20.5c1.1,0.6,2.1,1.1,3.1,1.6c0.2,0.5,0.6,1,0.9,1.5c0.4,0.7,0.9,1.3,1.4,1.8c-1.9-0.8-3.7-1.6-5.5-2.6
		c-3-1.6-4.2-2.2-6-3.3c0,0-13.4-6.2-18.8-4.1c-5.4,2.1-12.1,3.3-18-1.6c0,0,7.7-7.6,26.6-0.5c-6.2-6.4-27.2-1.9-31.2-14.8
		c0,0,6.9-3.8,23.8,6.4c-0.6-0.9-1.2-1.8-1.8-2.7l-1-1.3c-0.2-0.3-0.5-0.7-1-1.1c-1.7-1.7-5-3.9-5.9-4.7c-1.6-1.2-5.7-2.3-7.8-2.2
		c-0.6,1.3-2.3-2.4-0.2-0.9c0.5,0,3.2,0.3,5.5,1c-2.3-1.7-4.3-2.1-4.1-2C17,153,22,149.6,21.4,152"/>
	<line class="st8" x1="20.4" y1="110.5" x2="20.7" y2="110.8"/>
	<path class="st7" d="M151.1,115.4c-0.3-2.4-0.6-3.9-1.5-4.5c-1,0-1.5-1.1-1.9-1.6c0.2,0.8,0.3,1.4,0.3,1.4
		C149.5,112.8,150.5,114.2,151.1,115.4 M149.6,152.8c0.2,0-1.8,0.4-4.1,2c2.3-0.7,5-1,5.5-1c2.1-1.5,9.1-2.3,8.6,1.8
		c-0.2,1.8-2.5,2.4-5.7,1.8c-1.6-0.4-2.5-1.3-3.1-2.7c-2.1-0.1-6.1,1-7.8,2.2c-1,0.8-4.2,3-5.9,4.7c-0.4,0.4-0.8,0.8-1,1.1l-1,1.3
		c-0.5,0.9-1.1,1.8-1.8,2.7c16.9-10.3,23.8-6.4,23.8-6.4c-4,12.8-25,8.3-31.2,14.8c18.9-7.1,26.6,0.5,26.6,0.5
		c-5.9,4.8-12.5,3.7-18,1.6c-5.4-2.1-18.8,4.1-18.8,4.1c-1.8,1.1-2.9,1.7-6,3.3c-1.8,1-3.7,1.9-5.5,2.6c0.5-0.5,1-1.1,1.4-1.8
		c0.3-0.5,0.6-0.9,0.9-1.5c1-0.5,2.1-1,3.1-1.6c1.3-1.3,14.2-4.1,13.6-20.5c-0.3-8.5,1.5-15.1,3.3-14.9c0,0,8,12.2-0.4,24.6
		c0.7-0.5,6.8-10,6.1-13.5c-0.9-4.6-2.6-15.3,2.6-22.7c0,0,7.9,8.3-0.5,26.1c0.2-0.4,0.5-0.8,0.7-1.3c7.6-13.9,1.5-15,3.1-22.7
		c0.6-3,1.4-3.5,1.4-3.5s5.7,5,1.6,17.7c1.9-4.4,3.4-10.2,1.4-15.7c-2.1-5.9-8.2-11.5-3.3-21.7c0.5-1,1.9,1.4,2.5,4.4
		c0.9,5.3,0.2,6.6,1.6,12c0,0-0.8-9.2-0.5-14.6c0.2-2.1,0.7-4.6,1.1-4.5c0,0,5.9,3.4,4.2,18.6c0.8-5.6,1.9-9.9,3-12.9
		c-1.4-3.3-2.6-5.9-4.2-6.3c-2.9,0.1-5.7-1.9-6.9-4.1c-0.6-1.1-0.8-2-0.4-2.8c0.2-0.4,1.1-1.2,3.2-0.1c1.1,0.6,2,1.1,2.6,1.6
		c0-0.1-0.1-0.3-0.1-0.4c-0.2-1,0.1-1.4,0.5-1.8c0.3-0.3,1-0.6,2.4,0.4c1.7,1.8,2.2,3,2.3,4.2c0.2,1.2,0,2.5,0,2.5
		c0.6,2.4,1,3.8,1.2,5.1c0.7-1.6,1.4-2.8,1.9-3.5h0c0,0,0.7-5.5-2.4-9c-2.2-2.5-4-5.2-5.7-8.1c-1.6-2.9-3-7.2-2.3-7.7
		c0.3-0.2,1-0.3,1.8,0.5c6.7,6.7,8.7,12.9,9.1,17.1l0-0.9c-1.5-10.4-4.1-10.8-6.5-15.3c-2.5-4.5-2-3.8-3.1-7.1
		c-1.2-3.3,0.1-2.8,0.1-2.8c5.8,3.7,9.5,10,9.8,18.8c0,0-0.1-8.5-0.3-10.3c-0.2-1.8-0.7-3-1.4-4.4c-0.9-1.7-1.1-2.1-2-3.7
		c-0.9-1.1-2.4-1.7-3.8-2c-1,0.3-3,0.3-3,0.3c-2.7-0.3-4.2-1.8-4.6-3.2c-0.3-2.1,2.8-2.1,4.2-1.5c2,0.9,3.5,2.7,3.6,3.6
		c0.9,0.5,2.3,0.9,3.6,1.6c-0.3-0.5-0.6-2.5-2.2-3.6c-2.1-0.1-2.7-0.9-4.1-2.1c-1.4-1.2-2.8-4.3-1.2-5.6c0.6-0.5,4.2-1.5,6.2,4.6
		c0,0,0.4,1.3,0,2.6c0.5,0.7,1,1.7,1.3,2.4c0.7,1.7,1,2,1.8,4.1c1,2.5,1.4,2.1,1.4,2.1c0-2.6,1.7-10.4-8-18.5
		c-4.9-4.1-5.3-11.7-5.3-12.6c0-1-0.1-4.7,1.1-3.7c1.2,1,4.4,5.5,6.5,9.1c1.7,3,0.3,0.5,3.4,7.7c0,0-0.6-3.7-2.7-9.3
		c-6.5-17.4-9.2-13.8-14-18.2c-2.3-2.1-3.9-4.6-5.4-7.7c-1.5-3.1,2.4-1.2,2.4-1.2c5.2,3,10.3,10.1,11.4,11.9c0,0-0.4-1.5-1.8-3.8
		c-3.6-5.7-10.3-10-12.1-10.3c-1.4,1.4-4.2,1.1-6.7-0.1c-1-0.5-1.5-1.1-1.5-1.9c0-0.5,0-1.7,2.4-1.8c1.6-0.1,5.3,0.3,6.2,2.9
		c3.5,1.9,5.6,2.9,6.9,4.2c-0.7-1-0.8-1-1.5-2c0,0-2.2-2.2-4.6-3.8c-1.9-1.3-3.5-2-3.5-2c-2.8-1.1-5.1-1.6-7.7-3
		c-2.8-1.5-4.6-3.2-6.3-4.6c-1.2-1-0.1-1.5-0.1-1.5c5.9-1.2,12.8,5.2,16.2,7.5c-5.1-6.4-10.6-10.2-21.3-12.6
		c-2.4-0.5-7.8-4.7-4.9-5.5c4.8-1.3,9,0.6,9,0.6c5,2,13.6,10.6,16.3,13.8c-1.5-2.1-6.8-8.2-7.6-9.7c-2.1-4-2.5-5.6-2.5-6.2
		c0-0.4,0.4-0.3,0.6-0.2c8.6,3.1,10.3,10.3,11.3,12.3c1,2.1,3.8,10,5.7,13.4c1.7,3,2.4,3.6,4.3,6.7c-0.8-1.6-0.7-1.5-1.5-2.7
		c-1.8-2.7-4.7-8.3-4.9-12.1c-0.1-1.8,2.1-0.1,2.1-0.1c-0.6-1-0.8-2.4-1.1-3.9c-0.7-1.1-0.7-2.1-0.6-2.5c0.1-1.1,0.3-2.4,1.2-2.9
		c0.4-0.2,1.6-0.7,2.5,0.6c0.8,1.3-0.7,4.4-2.3,5c-0.4,0.9,0,2.3,0.5,3.7c0.5-1.6,0.8-2.4,1.5-3.4c-0.3-1.3,0.6-2.8,1.2-3.4
		c0.6-0.6,1.3-0.9,2.1-0.6c0.7,0.3,1,1.1,0.7,2.2c-0.4,1.2-1.9,2.3-3.5,2.3c-1.1,0.5-1.7,2.7-1.9,3.3c5.1,4.6,7,15.8,8,20.8
		c-1.1-7.3-3.2-27,0.1-23.7c4.3,4.2,3.9,12.5,3.7,13.5c-0.2,1-0.7,10.5-0.8,13.8c-0.3,7.7,3.6,13.4,4.8,17.8
		c-1.5-6.9-2.9-14.6-2.9-15.9c-0.2-5,4-0.1,5.2,3.1c1.1,2.7,1.8,5.5,1.9,9.2c0,2.9-0.3,11,0.1,8.1c0.8-4.8,0.3-4.2,0.9-9.5
		c0.5-5.3,3.8-14.8,5.7-11.6c0.6,0.9,1.9,3.5,0.9,11.9c-0.8,7.2-2.9,9.4-5.2,14.4c-2.3,5-2.5,18.5-2.5,18.5c0,0.3,0,0.7,0,1.2
		c0.4-0.9,1.1-2.5,1.6-3.9c0.7-1.9,0.9-2.1,1.5-3.6c0.3-0.7,0.9-1.7,1.3-3c-1.2-2.3,1-6.4,3-7.6c1.9-1.2,3.3,0,3.3,0
		c1.3,1.3,0.4,4.1-0.8,5.2c-1.2,1.1-2.6,2.6-4.6,2.8c-0.9,1.1-1.5,3.2-1.8,3.6c0.6-0.4,1.6-0.8,2.8-1c0.3-1.5,2.7-3.8,5.5-3.9
		c1.5,0,2.5,1.1,2.2,2.3c-0.3,1.2-2.1,2.8-4.5,2.9c0,0-1.7,0.1-2.9-0.6c-1.2,0-2.7,0.6-3.4,1.5c-0.8,1.3-1,1.7-1.7,3.2
		c-0.4,0.8-1.1,3.4-1.5,5.4c0,4-0.1,9.3-0.3,12.9c0.8-2.6,1.2-5.1,1.9-9.2c1.2-6.8,1.9-7.1,2.9-10c1.5-4.1,3.1-3.5,3.1-1.5
		c0,0,0.2,13.2-5.9,20.9c3.1-3.6,5.3-7.6,6.7-11.9c1.4-4.6,3.6-8.6,4.8-7.8c1.2,0.8,0.7,4.4-0.6,8.6c-1.3,4.2-6.4,9.3-7.3,10
		c-0.7,0.5-3.9,2.2-6,4.4c-0.4,0.6-0.1,2-0.1,2c0.7,0.5,1.1,3.5,0.9,7c0.6-0.8,1.4-1.7,2.4-2.9c0,0,0.4-1.6,1.2-2.8
		c1.1-1.7,4.4-4.5,6.6-2c1.8,2.9-3.7,5.8-6.9,5.5c-1.2,0.2-1.9,1.5-3.3,3.6c-0.2,2.4-0.7,5-1.6,7c-1.5,3.6-2,3.6-2.5,4.9
		c3-4.9,3.6-6.1,5.6-8.1c4.9-4.8,6-4.7,6-4.7c0.6,10.4-5.5,14.7-7.3,16.5c-1.8,1.8-7.2,5.9-8.1,6.9c-0.9,1.1-3.7,5.2-4.6,7.1
		c-0.8,1.6-4.3,7.3-5.1,8.7c1.2-0.6,3.9-2,5.4-3.4c1.6-1.5,2.6-1.8,4.8-2.9c-0.6-2.5,2.7-6.1,2.7-6.1c3.3-3.2,6-1,6.2-0.3
		C160.1,150.4,153.3,153.2,149.6,152.8"/>
	<path class="st8" d="M149.6,152.8c0.2,0-1.8,0.4-4.1,2c2.3-0.7,5-1,5.5-1c2.1-1.5,0.4,2.3-0.2,0.9c-2.1-0.1-6.1,1-7.8,2.2
		c-1,0.8-4.2,3-5.9,4.7c-0.4,0.4-0.8,0.8-1,1.1l-1,1.3c-0.5,0.9-1.1,1.8-1.8,2.7c16.9-10.3,23.8-6.4,23.8-6.4
		c-4,12.8-25,8.3-31.2,14.8c18.9-7.1,26.6,0.5,26.6,0.5c-5.9,4.8-12.5,3.7-18,1.6c-5.4-2.1-18.8,4.1-18.8,4.1
		c-1.8,1.1-2.9,1.7-6,3.3c-1.8,1-3.7,1.9-5.5,2.6c0.5-0.5,1-1.1,1.4-1.8c0.3-0.5,0.6-0.9,0.9-1.5c1-0.5,2.1-1,3.1-1.6
		c1.3-1.3,14.2-4.1,13.6-20.5c-0.3-8.5,1.5-15.1,3.3-14.9c0,0,8,12.2-0.4,24.6c0.7-0.5,6.8-10,6.1-13.5c-0.9-4.6-2.6-15.3,2.6-22.7
		c0,0,7.9,8.3-0.5,26.1c0.2-0.4,0.5-0.8,0.7-1.3c7.6-13.9,1.5-15,3.1-22.7c0.6-3,1.4-3.5,1.4-3.5s5.7,5,1.6,17.7
		c1.9-4.4,3.4-10.2,1.4-15.7c-2.1-5.9-8.2-11.5-3.3-21.7c0.5-1,1.9,1.4,2.5,4.4c0.9,5.3,0.2,6.6,1.6,12c0,0-0.8-9.2-0.5-14.6
		c0.2-2.1,0.7-4.6,1.1-4.5c0,0,5.9,3.4,4.2,18.6c0.8-5.6,1.9-9.9,3-12.9c-1.1-2.4-2.1-5.3-4.1-6.3c-0.2-0.1,0.2-0.4,0.2-0.5
		c0-0.1,0.6-0.2,0.8,0.1c2.2,2.9,3.1,4.8,3.1,4.7c-0.2-1.1-0.3-3.4-1.5-4.5c-0.2-0.2,0.4-0.4,0.4-0.5c0.1,0,0.4,0,0.5,0.2
		c0.4,1.1,1.2,4.6,1.2,5.1c0.7-1.6,1.4-2.8,1.9-3.5h0c0,0,0.7-5.5-2.4-9c-2.2-2.5-4-5.2-5.7-8.1c-1.6-2.9-3-7.2-2.3-7.7
		c0.3-0.2,1-0.3,1.8,0.5c6.7,6.7,8.7,12.9,9.1,17.1l0-0.9c-1.5-10.4-4.1-10.8-6.5-15.3c-2.5-4.5-2-3.8-3.1-7.1
		c-1.2-3.3,0.1-2.8,0.1-2.8c5.8,3.7,9.5,10,9.8,18.8c0,0-0.1-8.5-0.3-10.3c-0.2-1.8-0.7-3-1.4-4.4c-0.9-1.7-1.1-2.1-2-3.7
		c-0.9-1.1-2.4-1.7-3.8-2c-1,0.3,0-1.6,0.2-0.7c0.9,0.5,2.3,0.9,3.6,1.6c-0.3-0.5-0.6-2.5-2.2-3.6c-2.1-0.1,1.3-1.8,0.9-0.4
		c0.5,0.7,1,1.7,1.3,2.4c0.7,1.7,1,2,1.8,4.1c1,2.5,1.4,2.1,1.4,2.1c0-2.6,1.7-10.4-8-18.5c-4.9-4.1-5.3-11.7-5.3-12.6
		c0-1-0.1-4.7,1.1-3.7c1.2,1,4.4,5.5,6.5,9.1c1.7,3,0.3,0.5,3.4,7.7c0,0-0.6-3.7-2.7-9.3c-6.5-17.4-9.2-13.8-14-18.2
		c-2.3-2.1-3.9-4.6-5.4-7.7c-1.5-3.1,2.4-1.2,2.4-1.2c5.2,3,10.3,10.1,11.4,11.9c0,0-0.4-1.5-1.8-3.8c-3.6-5.7-10.3-10-12.1-10.3
		c-1.4,1.4-0.6-3.5,0.3-0.8c3.5,1.9,5.6,2.9,6.9,4.2c-0.7-1-0.8-1-1.5-2c0,0-2.2-2.2-4.6-3.8c-1.9-1.3-3.5-2-3.5-2
		c-2.8-1.1-5.1-1.6-7.7-3c-2.8-1.5-4.6-3.2-6.3-4.6c-1.2-1-0.1-1.5-0.1-1.5c5.9-1.2,12.8,5.2,16.2,7.5c-5.1-6.4-10.6-10.2-21.3-12.6
		c-2.4-0.5-7.8-4.7-4.9-5.5c4.8-1.3,9,0.6,9,0.6c5,2,13.6,10.6,16.3,13.8c-1.5-2.1-6.8-8.2-7.6-9.7c-2.1-4-2.5-5.6-2.5-6.2
		c0-0.4,0.4-0.3,0.6-0.2c8.6,3.1,10.3,10.3,11.3,12.3c1,2.1,3.8,10,5.7,13.4c1.7,3,2.4,3.6,4.3,6.7c-0.8-1.6-0.7-1.5-1.5-2.7
		c-1.8-2.7-4.7-8.3-4.9-12.1c-0.1-1.8,2.1-0.1,2.1-0.1c-0.6-1-0.8-2.4-1.1-3.9c-0.7-1.1,2.4-0.4,0.8,0.2c-0.4,0.9,0,2.3,0.5,3.7
		c0.5-1.6,0.8-2.4,1.5-3.4c-0.3-1.3,2.1,0.4,0.5,0.5c-1.1,0.5-1.7,2.7-1.9,3.3c5.1,4.6,7,15.8,8,20.8c-1.1-7.3-3.2-27,0.1-23.7
		c4.3,4.2,3.9,12.5,3.7,13.5c-0.2,1-0.7,10.5-0.8,13.8c-0.3,7.7,3.6,13.4,4.8,17.8c-1.5-6.9-2.9-14.6-2.9-15.9c-0.2-5,4-0.1,5.2,3.1
		c1.1,2.7,1.8,5.5,1.9,9.2c0,2.9-0.3,11,0.1,8.1c0.8-4.8,0.3-4.2,0.9-9.5c0.5-5.3,3.8-14.8,5.7-11.6c0.6,0.9,1.9,3.5,0.9,11.9
		c-0.8,7.2-2.9,9.4-5.2,14.4c-2.3,5-2.5,18.5-2.5,18.5c0,0.3,0,0.7,0,1.2c0.4-0.9,1.1-2.5,1.6-3.9c0.7-1.9,0.9-2.1,1.5-3.6
		c0.3-0.7,0.9-1.7,1.3-3c-1.2-2.3,2.9,0.2,0.9,0.5c-0.9,1.1-1.5,3.2-1.8,3.6c0.6-0.4,1.6-0.8,2.8-1c0.3-1.5,1.5,1.5,0.2,0.7
		c-1.2,0-2.7,0.6-3.4,1.5c-0.8,1.3-1,1.7-1.7,3.2c-0.4,0.8-1.1,3.4-1.5,5.4c0,4-0.1,9.3-0.3,12.9c0.8-2.6,1.2-5.1,1.9-9.2
		c1.2-6.8,1.9-7.1,2.9-10c1.5-4.1,3.1-3.5,3.1-1.5c0,0,0.2,13.2-5.9,20.9c3.1-3.6,5.3-7.6,6.7-11.9c1.4-4.6,3.6-8.6,4.8-7.8
		c1.2,0.8,0.7,4.4-0.6,8.6c-1.3,4.2-6.4,9.3-7.3,10c-0.7,0.5-3.9,2.2-6,4.4c-0.4,0.6-0.1,2-0.1,2c0.7,0.5,1.1,3.5,0.9,7
		c0.6-0.8,1.4-1.7,2.4-2.9c0,0,4.1,1,0.8,0.7c-1.2,0.2-1.9,1.5-3.3,3.6c-0.2,2.4-0.7,5-1.6,7c-1.5,3.6-2,3.6-2.5,4.9
		c3-4.9,3.6-6.1,5.6-8.1c4.9-4.8,6-4.7,6-4.7c0.6,10.4-5.5,14.7-7.3,16.5c-1.8,1.8-7.2,5.9-8.1,6.9c-0.9,1.1-3.7,5.2-4.6,7.1
		c-0.8,1.6-4.3,7.3-5.1,8.7c1.2-0.6,3.9-2,5.4-3.4c1.6-1.5,2.6-1.8,4.8-2.9C148.3,149.7,153.3,153.2,149.6,152.8"/>
	<line class="st8" x1="149.9" y1="110.6" x2="149.6" y2="110.9"/>
</g>
</svg>
